<svg xmlns="http://www.w3.org/2000/svg" xmlns:xlink="http://www.w3.org/1999/xlink" preserveAspectRatio="xMidYMid" width="160" height="205" viewBox="0 0 160 205">
  <defs>
    <style>
      .cls-1 {
        fill: #fff;
      }

      .cls-2 {
        fill: #e2e1e1;
        fill-rule: evenodd;
      }

      .cls-3 {
        fill: #83bdeb;
      }

      .cls-4 {
        fill: #a2d1f7;
      }
    </style>
  </defs>
  <g>
    <rect width="160" height="205" class="cls-1"/>
    <path d="M25.000,163.000 L25.000,160.000 L135.000,160.000 L135.000,163.000 L25.000,163.000 ZM25.000,153.000 L135.000,153.000 L135.000,156.000 L25.000,156.000 L25.000,153.000 ZM95.000,170.000 L25.000,170.000 L25.000,167.000 L95.000,167.000 L95.000,170.000 Z" class="cls-2"/>
    <rect x="85" y="103" width="50" height="30" class="cls-3"/>
    <rect x="25" y="103" width="50" height="30" class="cls-3"/>
    <path d="M25.000,76.000 L25.000,73.000 L135.000,73.000 L135.000,76.000 L25.000,76.000 ZM25.000,66.000 L135.000,66.000 L135.000,69.000 L25.000,69.000 L25.000,66.000 ZM95.000,83.000 L25.000,83.000 L25.000,80.000 L95.000,80.000 L95.000,83.000 Z" class="cls-2"/>
    <rect x="50" y="26" width="60" height="30" class="cls-4"/>
  </g>
</svg>
