<svg xmlns="http://www.w3.org/2000/svg" xmlns:xlink="http://www.w3.org/1999/xlink" preserveAspectRatio="xMidYMid" width="160" height="205" viewBox="0 0 160 205">
  <defs>
    <style>
      .cls-1 {
        fill: #fff;
      }

      .cls-2 {
        fill: #e2e1e1;
        fill-rule: evenodd;
      }

      .cls-3 {
        fill: #83bdeb;
      }

      .cls-4 {
        fill: #a2d1f7;
      }
    </style>
  </defs>
  <g>
    <rect width="160" height="205" class="cls-1"/>
    <path d="M85.000,165.000 L85.000,162.000 L135.000,162.000 L135.000,165.000 L85.000,165.000 ZM85.000,155.000 L135.000,155.000 L135.000,158.000 L85.000,158.000 L85.000,155.000 ZM125.000,172.000 L85.000,172.000 L85.000,169.000 L125.000,169.000 L125.000,172.000 Z" class="cls-2"/>
    <rect x="25" y="155" width="50" height="30" class="cls-3"/>
    <rect x="85" y="115" width="50" height="30" class="cls-3"/>
    <path d="M25.000,125.000 L25.000,122.000 L75.000,122.000 L75.000,125.000 L25.000,125.000 ZM25.000,115.000 L75.000,115.000 L75.000,118.000 L25.000,118.000 L25.000,115.000 ZM65.000,132.000 L25.000,132.000 L25.000,129.000 L65.000,129.000 L65.000,132.000 Z" class="cls-2"/>
    <path d="M85.000,85.000 L85.000,82.000 L135.000,82.000 L135.000,85.000 L85.000,85.000 ZM85.000,75.000 L135.000,75.000 L135.000,78.000 L85.000,78.000 L85.000,75.000 ZM125.000,92.000 L85.000,92.000 L85.000,89.000 L125.000,89.000 L125.000,92.000 Z" class="cls-2"/>
    <rect x="25" y="75" width="50" height="30" class="cls-3"/>
    <rect x="50" y="25" width="60" height="30" class="cls-4"/>
  </g>
</svg>
