<svg xmlns="http://www.w3.org/2000/svg" xmlns:xlink="http://www.w3.org/1999/xlink" preserveAspectRatio="xMidYMid" width="156" height="171" viewBox="0 0 156 171">
  <defs>
    <style>
      .cls-1 {
        fill: #fff;
        stroke: #e2e1e1;
        stroke-width: 1px;
        stroke-dasharray: 4,2;
      }

      .cls-2 {
        fill: #e2e1e1;
        fill-rule: evenodd;
      }

      .cls-3 {
        fill: #a2d1f7;
      }

      .cls-4 {
        fill: #83bdeb;
      }
    </style>
  </defs>
  <g>
    <rect x="0.5" y="0.5" width="155" height="170" rx="3" ry="3" class="cls-1"/>
    <path d="M80.000,140.000 L80.000,138.000 L150.000,138.000 L150.000,140.000 L80.000,140.000 ZM80.000,134.000 L150.000,134.000 L150.000,136.000 L80.000,136.000 L80.000,134.000 ZM80.000,130.000 L150.000,130.000 L150.000,132.000 L80.000,132.000 L80.000,130.000 ZM80.000,126.000 L150.000,126.000 L150.000,128.000 L80.000,128.000 L80.000,126.000 ZM80.000,122.000 L150.000,122.000 L150.000,124.000 L80.000,124.000 L80.000,122.000 ZM130.000,144.000 L80.000,144.000 L80.000,142.000 L130.000,142.000 L130.000,144.000 Z" class="cls-2"/>
    <rect x="80.5" y="77.5" width="70" height="40" class="cls-3"/>
    <path d="M5.000,140.000 L5.000,138.000 L75.000,138.000 L75.000,140.000 L5.000,140.000 ZM5.000,134.000 L75.000,134.000 L75.000,136.000 L5.000,136.000 L5.000,134.000 ZM5.000,130.000 L75.000,130.000 L75.000,132.000 L5.000,132.000 L5.000,130.000 ZM5.000,126.000 L75.000,126.000 L75.000,128.000 L5.000,128.000 L5.000,126.000 ZM5.000,122.000 L75.000,122.000 L75.000,124.000 L5.000,124.000 L5.000,122.000 ZM55.000,144.000 L5.000,144.000 L5.000,142.000 L55.000,142.000 L55.000,144.000 Z" class="cls-2"/>
    <rect x="5.5" y="77.5" width="70" height="40" class="cls-3"/>
    <path d="M5.000,68.000 L5.000,66.000 L150.000,66.000 L150.000,68.000 L5.000,68.000 ZM5.000,62.000 L150.000,62.000 L150.000,64.000 L5.000,64.000 L5.000,62.000 ZM5.000,58.000 L150.000,58.000 L150.000,60.000 L5.000,60.000 L5.000,58.000 ZM5.000,54.000 L150.000,54.000 L150.000,56.000 L5.000,56.000 L5.000,54.000 ZM5.000,50.000 L150.000,50.000 L150.000,52.000 L5.000,52.000 L5.000,50.000 ZM110.000,72.000 L5.000,72.000 L5.000,70.000 L110.000,70.000 L110.000,72.000 Z" class="cls-2"/>
    <rect x="5.5" y="5.5" width="145" height="40" class="cls-4"/>
  </g>
</svg>
