<svg xmlns="http://www.w3.org/2000/svg" xmlns:xlink="http://www.w3.org/1999/xlink" preserveAspectRatio="xMidYMid" width="156" height="171" viewBox="0 0 156 171">
  <defs>
    <style>
      .cls-1 {
        fill: #fff;
        stroke: #e2e1e1;
        stroke-width: 1px;
        stroke-dasharray: 4,2;
      }

      .cls-2 {
        fill: #e2e1e1;
        fill-rule: evenodd;
      }

      .cls-3 {
        fill: #a2d1f7;
      }

      .cls-4 {
        fill: #83bdeb;
      }
    </style>
  </defs>
  <g>
    <rect x="0.5" y="0.5" width="155" height="170" rx="3" ry="3" class="cls-1"/>
    <path d="M5.000,135.000 L5.000,133.000 L150.000,133.000 L150.000,135.000 L5.000,135.000 ZM5.000,129.000 L150.000,129.000 L150.000,131.000 L5.000,131.000 L5.000,129.000 ZM5.000,125.000 L150.000,125.000 L150.000,127.000 L5.000,127.000 L5.000,125.000 ZM5.000,121.000 L150.000,121.000 L150.000,123.000 L5.000,123.000 L5.000,121.000 ZM5.000,117.000 L150.000,117.000 L150.000,119.000 L5.000,119.000 L5.000,117.000 ZM110.000,139.000 L5.000,139.000 L5.000,137.000 L110.000,137.000 L110.000,139.000 Z" class="cls-2"/>
    <rect x="105.5" y="77.5" width="45" height="35" class="cls-3"/>
    <rect x="55.5" y="77.5" width="45" height="35" class="cls-3"/>
    <rect x="5.5" y="77.5" width="45" height="35" class="cls-3"/>
    <path d="M5.000,68.000 L5.000,66.000 L150.000,66.000 L150.000,68.000 L5.000,68.000 ZM5.000,62.000 L150.000,62.000 L150.000,64.000 L5.000,64.000 L5.000,62.000 ZM5.000,58.000 L150.000,58.000 L150.000,60.000 L5.000,60.000 L5.000,58.000 ZM5.000,54.000 L150.000,54.000 L150.000,56.000 L5.000,56.000 L5.000,54.000 ZM5.000,50.000 L150.000,50.000 L150.000,52.000 L5.000,52.000 L5.000,50.000 ZM110.000,72.000 L5.000,72.000 L5.000,70.000 L110.000,70.000 L110.000,72.000 Z" class="cls-2"/>
    <rect x="5.5" y="5.5" width="145" height="40" class="cls-4"/>
  </g>
</svg>
