<svg xmlns="http://www.w3.org/2000/svg" xmlns:xlink="http://www.w3.org/1999/xlink" preserveAspectRatio="xMidYMid" width="160" height="205" viewBox="0 0 160 205">
  <defs>
    <style>
      .cls-1 {
        fill: #fff;
      }

      .cls-2 {
        fill: #e2e1e1;
      }

      .cls-2, .cls-5 {
        fill-rule: evenodd;
      }

      .cls-3 {
        fill: #83bdeb;
      }

      .cls-4 {
        fill: #f0f0f0;
      }

      .cls-5 {
        fill: #bcbbbb;
      }

      .cls-6 {
        fill: #a2d1f7;
      }
    </style>
  </defs>
  <g>
    <rect width="160" height="205" class="cls-1"/>
    <path d="M105.000,153.000 L105.000,150.000 L135.000,150.000 L135.000,153.000 L105.000,153.000 ZM105.000,143.000 L135.000,143.000 L135.000,146.000 L105.000,146.000 L105.000,143.000 ZM125.000,160.000 L105.000,160.000 L105.000,157.000 L125.000,157.000 L125.000,160.000 Z" class="cls-2"/>
    <rect x="105" y="113" width="30" height="20" class="cls-3"/>
    <path d="M65.000,153.000 L65.000,150.000 L95.000,150.000 L95.000,153.000 L65.000,153.000 ZM65.000,143.000 L95.000,143.000 L95.000,146.000 L65.000,146.000 L65.000,143.000 ZM85.000,160.000 L65.000,160.000 L65.000,157.000 L85.000,157.000 L85.000,160.000 Z" class="cls-2"/>
    <rect x="65" y="113" width="30" height="20" class="cls-3"/>
    <path d="M25.000,153.000 L25.000,150.000 L55.000,150.000 L55.000,153.000 L25.000,153.000 ZM25.000,143.000 L55.000,143.000 L55.000,146.000 L25.000,146.000 L25.000,143.000 ZM45.000,160.000 L25.000,160.000 L25.000,157.000 L45.000,157.000 L45.000,160.000 Z" class="cls-2"/>
    <rect x="25" y="113" width="30" height="20" class="cls-3"/>
    <rect y="66" width="160" height="37" class="cls-4"/>
    <path d="M25.000,86.000 L25.000,83.000 L135.000,83.000 L135.000,86.000 L25.000,86.000 ZM25.000,76.000 L135.000,76.000 L135.000,79.000 L25.000,79.000 L25.000,76.000 ZM95.000,93.000 L25.000,93.000 L25.000,90.000 L95.000,90.000 L95.000,93.000 Z" class="cls-5"/>
    <rect x="50" y="26" width="60" height="30" class="cls-6"/>
  </g>
</svg>
