<svg xmlns="http://www.w3.org/2000/svg" xmlns:xlink="http://www.w3.org/1999/xlink" preserveAspectRatio="xMidYMid" width="160" height="205" viewBox="0 0 160 205">
  <defs>
    <style>
      .cls-1 {
        fill: #fff;
      }

      .cls-2 {
        fill: #e2e1e1;
        fill-rule: evenodd;
      }

      .cls-3 {
        fill: #83bdeb;
      }

      .cls-4 {
        fill: #a2d1f7;
      }
    </style>
  </defs>
  <g>
    <rect width="160" height="205" class="cls-1"/>
    <path d="M105.000,143.000 L105.000,140.000 L135.000,140.000 L135.000,143.000 L105.000,143.000 ZM105.000,133.000 L135.000,133.000 L135.000,136.000 L105.000,136.000 L105.000,133.000 ZM125.000,150.000 L105.000,150.000 L105.000,147.000 L125.000,147.000 L125.000,150.000 Z" class="cls-2"/>
    <rect x="105" y="103" width="30" height="20" class="cls-3"/>
    <path d="M65.000,143.000 L65.000,140.000 L95.000,140.000 L95.000,143.000 L65.000,143.000 ZM65.000,133.000 L95.000,133.000 L95.000,136.000 L65.000,136.000 L65.000,133.000 ZM85.000,150.000 L65.000,150.000 L65.000,147.000 L85.000,147.000 L85.000,150.000 Z" class="cls-2"/>
    <rect x="65" y="103" width="30" height="20" class="cls-3"/>
    <path d="M25.000,143.000 L25.000,140.000 L55.000,140.000 L55.000,143.000 L25.000,143.000 ZM25.000,133.000 L55.000,133.000 L55.000,136.000 L25.000,136.000 L25.000,133.000 ZM45.000,150.000 L25.000,150.000 L25.000,147.000 L45.000,147.000 L45.000,150.000 Z" class="cls-2"/>
    <rect x="25" y="103" width="30" height="20" class="cls-3"/>
    <path d="M25.000,76.000 L25.000,73.000 L135.000,73.000 L135.000,76.000 L25.000,76.000 ZM25.000,66.000 L135.000,66.000 L135.000,69.000 L25.000,69.000 L25.000,66.000 ZM95.000,83.000 L25.000,83.000 L25.000,80.000 L95.000,80.000 L95.000,83.000 Z" class="cls-2"/>
    <rect x="50" y="26" width="60" height="30" class="cls-4"/>
  </g>
</svg>
