<svg xmlns="http://www.w3.org/2000/svg" xmlns:xlink="http://www.w3.org/1999/xlink" preserveAspectRatio="xMidYMid" width="72" height="72" viewBox="0 0 72 72">
  <defs>
    <style>
      .cls-1 {
        fill: #f3f3f3;
      }

      .cls-2 {
        fill: #d8d8d8;
      }

      .cls-3 {
        fill: #fff;
      }

      .cls-4 {
        fill: #d8dae1;
        fill-rule: evenodd;
      }

      .cls-5 {
        fill: #f24b45;
      }

      .cls-6 {
        fill: #ffb202;
      }

      .cls-7 {
        fill: #49ba3e;
      }

      .cls-8 {
        fill: #72b338;
      }

      .cls-9 {
        fill: #e5eedd;
      }

      .cls-10 {
        fill: #becee0;
      }
    </style>
  </defs>
  <g>
    <rect width="72" height="72" rx="12" ry="12" class="cls-1"/>
    <rect x="17" y="21" width="43" height="34" rx="2" ry="2" class="cls-2"/>
    <rect x="14" y="18" width="43" height="34" rx="2" ry="2" class="cls-3"/>
    <path d="M16.000,18.000 L55.000,18.000 C56.105,18.000 57.000,18.895 57.000,20.000 L57.000,25.000 L14.000,25.000 L14.000,20.000 C14.000,18.895 14.895,18.000 16.000,18.000 Z" class="cls-4"/>
    <circle cx="17.5" cy="21.5" r="1.5" class="cls-5"/>
    <circle cx="22.5" cy="21.5" r="1.5" class="cls-6"/>
    <circle cx="27.5" cy="21.5" r="1.5" class="cls-7"/>
    <rect x="18" y="28" width="18" height="21" class="cls-8"/>
    <rect x="20" y="30" width="14" height="17" class="cls-9"/>
    <rect x="26" y="35" width="2" height="6" class="cls-8"/>
    <rect x="24" y="37" width="6" height="2" class="cls-8"/>
    <rect x="38" y="28" width="15" height="9" class="cls-10"/>
    <rect x="38" y="39" width="15" height="10" class="cls-10"/>
  </g>
</svg>
