<?xml version="1.0" encoding="utf-8"?>
<!-- Generator: Adobe Illustrator 19.0.0, SVG Export Plug-In . SVG Version: 6.00 Build 0)  -->
<svg version="1.2" baseProfile="tiny" id="Layer_1" xmlns="http://www.w3.org/2000/svg" xmlns:xlink="http://www.w3.org/1999/xlink"
	 x="0px" y="0px" width="72px" height="72px" viewBox="-713 365 72 72" xml:space="preserve">
<g>
	<path fill="#FAF3F3" d="M-701,365h48c6.6,0,12,5.4,12,12v48c0,6.6-5.4,12-12,12h-48c-6.6,0-12-5.4-12-12v-48
		C-713,370.4-707.6,365-701,365z"/>
	<g>
		<path fill="#C75262" d="M-699,384h4v34h-4c-1.1,0-2-0.9-2-2v-30C-701,384.9-700.1,384-699,384z"/>
		<path fill="#DEE3E7" d="M-695,384h40c1.1,0,2,0.9,2,2v30c0,1.1-0.9,2-2,2h-40V384z"/>
		<path fill="#FFFFFF" d="M-688,403h29c0.6,0,1,0.4,1,1v7c0,0.6-0.4,1-1,1h-29V403z"/>
		<path fill="#FFFFFF" d="M-688,390h29c0.6,0,1,0.4,1,1v7c0,0.6-0.4,1-1,1h-29V390z"/>
		<path fill="#56A6E5" d="M-690,403h3v9h-3c-0.6,0-1-0.4-1-1v-7C-691,403.4-690.6,403-690,403z"/>
		<path fill="#56A6E5" d="M-690,390h3v9h-3c-0.6,0-1-0.4-1-1v-7C-691,390.4-690.6,390-690,390z"/>
	</g>
</g>
</svg>
