<?xml version="1.0" encoding="utf-8"?>
<!-- Generator: Adobe Illustrator 19.0.0, SVG Export Plug-In . SVG Version: 6.00 Build 0)  -->
<svg version="1.1" id="Layer_1" xmlns="http://www.w3.org/2000/svg" xmlns:xlink="http://www.w3.org/1999/xlink" x="0px" y="0px"
	 width="80px" height="80px" viewBox="-441 241 80 80" style="enable-background:new -441 241 80 80;" xml:space="preserve">
<style type="text/css">
	.st0{fill:#4076B3;}
	.st1{fill:#72B27C;}
	.st2{fill:#E46047;}
	.st3{fill:#FFCC66;}
</style>
<g>
	<path class="st0" d="M-362,321h-26v-24h8v-6h10v6h8V321z"/>
	<path class="st1" d="M-388,321h-51.5c-0.3,0-0.5-0.2-0.5-0.5v-23c0-0.3,0.2-0.5,0.5-0.5h7c0.3,0,0.5-0.2,0.5-0.5v-5
		c0-0.3,0.2-0.5,0.5-0.5h9c0.3,0,0.5,0.2,0.5,0.5v5c0,0.3,0.2,0.5,0.5,0.5h15c0.3,0,0.5-0.2,0.5-0.5v-5c0-0.3,0.2-0.5,0.5-0.5h9
		c0.3,0,0.5,0.2,0.5,0.5v5c0,0.3,0.2,0.5,0.5,0.5h7.5V321z"/>
	<path class="st2" d="M-362,297h-52v-24h8v-5.5c0-0.3,0.2-0.5,0.5-0.5h9c0.3,0,0.5,0.2,0.5,0.5v5.5h15.5c0.3,0,0.5-0.2,0.5-0.5v-5
		c0-0.3,0.2-0.5,0.5-0.5h9c0.3,0,0.5,0.2,0.5,0.5v5c0,0.3,0.2,0.5,0.5,0.5h7c0.3,0,0.5,0.2,0.5,0.5V297z"/>
	<path class="st3" d="M-388,273h-26v-23.5c0-0.3,0.2-0.5,0.5-0.5h7c0.3,0,0.5-0.2,0.5-0.5v-5c0-0.3,0.2-0.5,0.5-0.5h9
		c0.3,0,0.5,0.2,0.5,0.5v5c0,0.3,0.2,0.5,0.5,0.5h7c0.3,0,0.5,0.2,0.5,0.5V273z"/>
</g>
</svg>
