<?xml version="1.0" encoding="utf-8"?>
<!-- Generator: Adobe Illustrator 19.0.0, SVG Export Plug-In . SVG Version: 6.00 Build 0)  -->
<svg version="1.1" id="Layer_1" xmlns="http://www.w3.org/2000/svg" xmlns:xlink="http://www.w3.org/1999/xlink" x="0px" y="0px"
	 width="80px" height="80px" viewBox="-439 241 80 80" style="enable-background:new -439 241 80 80;" xml:space="preserve">
<style type="text/css">
	.st0{fill:#4196F6;}
</style>
<g>
	<path class="st0" d="M-372.3,245h12.6c0.4,0,0.7,0.3,0.7,0.7v74.6c0,0.4-0.3,0.7-0.7,0.7h-12.6c-0.4,0-0.7-0.3-0.7-0.7v-74.6
		C-373,245.3-372.7,245-372.3,245z"/>
	<path class="st0" d="M-394.3,257h12.6c0.4,0,0.7,0.3,0.7,0.7v62.6c0,0.4-0.3,0.7-0.7,0.7h-12.6c-0.4,0-0.7-0.3-0.7-0.7v-62.6
		C-395,257.3-394.7,257-394.3,257z"/>
	<path class="st0" d="M-416.3,269h12.6c0.4,0,0.7,0.3,0.7,0.7v50.6c0,0.4-0.3,0.7-0.7,0.7h-12.6c-0.4,0-0.7-0.3-0.7-0.7v-50.6
		C-417,269.3-416.7,269-416.3,269z"/>
	<path class="st0" d="M-438.3,281h12.6c0.4,0,0.7,0.3,0.7,0.7v38.6c0,0.4-0.3,0.7-0.7,0.7h-12.6c-0.4,0-0.7-0.3-0.7-0.7v-38.6
		C-439,281.3-438.7,281-438.3,281z"/>
</g>
</svg>
