<?xml version="1.0" encoding="utf-8"?>
<!-- Generator: Adobe Illustrator 19.0.0, SVG Export Plug-In . SVG Version: 6.00 Build 0)  -->
<svg version="1.1" id="Layer_1" xmlns="http://www.w3.org/2000/svg" xmlns:xlink="http://www.w3.org/1999/xlink" x="0px" y="0px"
	 width="249px" height="176px" viewBox="-355 193 249 176" style="enable-background:new -355 193 249 176;" xml:space="preserve">
<style type="text/css">
	.st0{fill:#CDCDCD;}
	.st1{fill:#F5F5F5;}
	.st2{fill:#D3D3D3;}
	.st3{fill:#FE6760;}
	.st4{fill:#FFBD2E;}
	.st5{fill:#28C941;}
	.st6{fill:#BDC7E1;}
	.st7{fill:#FACCCE;}
	.st8{fill:#BF2026;}
	.st9{fill:#FFFFFF;}
	.st10{fill:#C4E0FF;}
	.st11{fill:#A1C0E3;}
	.st12{fill:#6CA2DF;}
	.st13{fill:#EDEDED;}
	.st14{fill:#DFDFDF;}
	.st15{fill:#F4C000;}
	.st16{fill:#72B338;}
	.st17{fill:#6AA436;}
	.st18{fill:#FFEFDA;}
	.st19{fill:#F3DEC1;}
	.st20{fill:#FF9000;}
	.st21{fill:#8FCCAF;}
	.st22{fill:#A8DC7B;}
	.st23{fill:#F0FDA3;}
	.st24{fill:#D9EBCA;}
</style>
<g>
	<path class="st0" d="M-233,365c32.6,0,59,1.2,59,2.7s-59,1.3-59,1.3s-59,0.1-59-1.3S-265.6,365-233,365z"/>
	<g>
		<path class="st1" d="M-283,210h101c1.1,0,2,0.9,2,2v145c0,1.1-0.9,2-2,2h-101c-1.1,0-2-0.9-2-2V212C-285,210.9-284.1,210-283,210z
			"/>
		<g>
			<path class="st2" d="M-283,210h101c1.1,0,2,0.9,2,2v7h-105v-7C-285,210.9-284.1,210-283,210z"/>
			<circle class="st3" cx="-279.5" cy="214.5" r="1.5"/>
			<circle class="st4" cx="-274.5" cy="214.5" r="1.5"/>
			<circle class="st5" cx="-269.5" cy="214.5" r="1.5"/>
		</g>
		<g>
			<path class="st6" d="M-275,276h39c1.1,0,2,0.9,2,2v20c0,1.1-0.9,2-2,2h-39c-1.1,0-2-0.9-2-2v-20C-277,276.9-276.1,276-275,276z"
				/>
			<path class="st6" d="M-229,276h39c1.1,0,2,0.9,2,2v20c0,1.1-0.9,2-2,2h-39c-1.1,0-2-0.9-2-2v-20C-231,276.9-230.1,276-229,276z"
				/>
			<path class="st6" d="M-276.3,302h41.6c0.4,0,0.7,0.3,0.7,0.7v1.6c0,0.4-0.3,0.7-0.7,0.7h-41.6c-0.4,0-0.7-0.3-0.7-0.7v-1.6
				C-277,302.3-276.7,302-276.3,302z"/>
			<path class="st6" d="M-276.3,307h41.6c0.4,0,0.7,0.3,0.7,0.7v1.6c0,0.4-0.3,0.7-0.7,0.7h-41.6c-0.4,0-0.7-0.3-0.7-0.7v-1.6
				C-277,307.3-276.7,307-276.3,307z"/>
			<path class="st6" d="M-230.3,302h41.6c0.4,0,0.7,0.3,0.7,0.7v1.6c0,0.4-0.3,0.7-0.7,0.7h-41.6c-0.4,0-0.7-0.3-0.7-0.7v-1.6
				C-231,302.3-230.7,302-230.3,302z"/>
			<path class="st6" d="M-230.3,307h41.6c0.4,0,0.7,0.3,0.7,0.7v1.6c0,0.4-0.3,0.7-0.7,0.7h-41.6c-0.4,0-0.7-0.3-0.7-0.7v-1.6
				C-231,307.3-230.7,307-230.3,307z"/>
			<g>
				<path class="st7" d="M-275,318h85c1.1,0,2,0.9,2,2v29c0,1.1-0.9,2-2,2h-85c-1.1,0-2-0.9-2-2v-29C-277,318.9-276.1,318-275,318z"
					/>
				<path class="st8" d="M-237,328h9c1.7,0,3,1.3,3,3v5c0,1.7-1.3,3-3,3h-9c-1.7,0-3-1.3-3-3v-5C-240,329.3-238.7,328-237,328z"/>
				<path class="st9" d="M-230,333.4l-4,2.5v-5L-230,333.4z"/>
			</g>
		</g>
	</g>
	<g>
		<path class="st10" d="M-348,279h23c3.9,0,7,3.1,7,7v23c0,3.9-3.1,7-7,7h-23c-3.9,0-7-3.1-7-7v-23C-355,282.1-351.9,279-348,279z"
			/>
		<path class="st11" d="M-343.8,287.2h18.7c1.7,0,3,1.3,3,3v18.7c0,1.7-1.3,3-3,3h-18.7c-1.7,0-3-1.3-3-3v-18.7
			C-346.8,288.6-345.4,287.2-343.8,287.2z"/>
		<path class="st9" d="M-349,290h24v16c0,1.7-1.3,3-3,3h-18c-1.7,0-3-1.3-3-3V290z"/>
		<path class="st10" d="M-334,293.9h-6c-1.5,0-2.7,1.2-2.7,2.7v6c0,0.4,0.4,0.8,0.8,0.8s0.8-0.4,0.8-0.8v-6c0-0.6,0.5-1.1,1.1-1.1h6
			c0.6,0,1.1,0.5,1.1,1.1v6c0,0.6-0.5,1.1-1.1,1.1h-4.5l2.4-3.8l0.1,0.3c0.1,0.4,0.4,0.7,0.8,0.7h0.1c0.4-0.1,0.7-0.5,0.7-0.9
			l-0.3-2.3c-0.1-0.4-0.5-0.7-0.9-0.7l-2.6,0.4c-0.4,0.1-0.7,0.5-0.7,0.9c0.1,0.4,0.5,0.7,0.9,0.7l0.7-0.1l-3.3,5.2
			c-0.2,0.2-0.2,0.5,0,0.8c0.1,0.3,0.4,0.4,0.7,0.4h6c1.5,0,2.7-1.2,2.7-2.7v-6C-331.3,295.1-332.5,293.9-334,293.9z"/>
		<path class="st12" d="M-346,285h18c1.7,0,3,1.3,3,3v2h-24v-2C-349,286.3-347.7,285-346,285z"/>
		<circle class="st9" cx="-340.6" cy="287.2" r="1"/>
		<circle class="st9" cx="-343.2" cy="287.2" r="1"/>
		<circle class="st9" cx="-345.8" cy="287.2" r="1"/>
	</g>
	<g>
		<path class="st13" d="M-331,226h22c3.9,0,7,3.1,7,7v22c0,3.9-3.1,7-7,7h-22c-3.9,0-7-3.1-7-7v-22C-338,229.1-334.9,226-331,226z"
			/>
		<circle class="st14" cx="-318" cy="246" r="9"/>
		<circle class="st15" cx="-320" cy="244" r="9"/>
		<path class="st9" d="M-321,250v-2h2v2H-321z M-321,238h2v8h-2V238z"/>
	</g>
	<g>
		<path class="st16" d="M-156,193h22c3.9,0,7,3.1,7,7v22c0,3.9-3.1,7-7,7h-22c-3.9,0-7-3.1-7-7v-22C-163,196.1-159.9,193-156,193z"
			/>
		<path class="st17" d="M-135,214.2c-4.4-3.2-8.8,3.2-13.2,0v-7.9c4.4,3.2,8.8-3.2,13.2,0V214.2z M-148.1,205c0,0.5-0.4,1-0.9,1
			s-0.9-0.4-0.9-1c0-0.5,0.4-1,0.9-1S-148.1,204.4-148.1,205z M-148.7,220.6v-14.1c0-0.2-0.2-0.4-0.4-0.4s-0.4,0.2-0.4,0.4v14.1
			c0,0.2,0.2,0.4,0.4,0.4S-148.7,220.8-148.7,220.6L-148.7,220.6z"/>
		<path class="st9" d="M-137,212.2c-4.4-3.2-8.8,3.2-13.2,0v-7.9c4.4,3.2,8.8-3.2,13.2,0V212.2z M-150.1,203c0,0.5-0.4,1-0.9,1
			s-0.9-0.4-0.9-1c0-0.5,0.4-1,0.9-1S-150.1,202.4-150.1,203z M-150.7,218.6v-14.1c0-0.2-0.2-0.4-0.4-0.4s-0.4,0.2-0.4,0.4v14.1
			c0,0.2,0.2,0.4,0.4,0.4S-150.7,218.8-150.7,218.6L-150.7,218.6z"/>
	</g>
	<g>
		<path class="st18" d="M-138,245h21.6c3.9,0,7,3.1,7,7v21.6c0,3.9-3.1,7-7,7H-138c-3.9,0-7-3.1-7-7V252
			C-145,248.1-141.9,245-138,245z"/>
		<path class="st19" d="M-117.3,267.1c-0.6-0.4-1-0.9-1.1-1.4c1-1,1.6-2.4,1.6-3.8c0-3.3-3.3-6-7.3-6s-7.3,2.7-7.3,6s3.3,6,7.3,6
			c1.5,0,2.8-0.4,4-1c1,0.6,2.1,0.6,2.8,0.5C-117.2,267.5-117.1,267.2-117.3,267.1z M-124.1,269.2c0.3,0,0.6,0,0.8,0
			c-0.8,2-3.1,3.5-5.8,3.5c-1.2,0-2.3-0.3-3.3-0.8c-0.9,0.5-1.8,0.5-2.3,0.4c-0.2,0-0.2-0.2-0.1-0.3c0.5-0.3,0.8-0.8,1-1.2
			c-0.8-0.9-1.3-2-1.3-3.1c0-1.7,1.1-3.3,2.7-4.2C-131.6,266.7-128.2,269.2-124.1,269.2z"/>
		<path class="st20" d="M-118.8,265.6c-0.6-0.4-1-0.9-1.1-1.4c1-1,1.6-2.4,1.6-3.8c0-3.3-3.3-6-7.3-6s-7.3,2.7-7.3,6s3.3,6,7.3,6
			c1.5,0,2.8-0.4,4-1c1,0.6,2.1,0.6,2.8,0.5C-118.7,266-118.6,265.8-118.8,265.6z"/>
		<path class="st9" d="M-125.6,267.7c0.3,0,0.6,0,0.8,0c-0.8,2-3.1,3.5-5.8,3.5c-1.2,0-2.3-0.3-3.3-0.8c-0.9,0.5-1.8,0.5-2.3,0.4
			c-0.2,0-0.2-0.2-0.1-0.3c0.5-0.3,0.8-0.8,1-1.2c-0.8-0.9-1.3-2-1.3-3.1c0-1.7,1.1-3.3,2.7-4.2
			C-133.1,265.2-129.7,267.7-125.6,267.7z"/>
	</g>
	<g>
		<ellipse class="st21" cx="-307" cy="341" rx="5" ry="5"/>
		<circle class="st21" cx="-115.5" cy="200.5" r="3.5"/>
		<ellipse class="st22" cx="-160.5" cy="261.5" rx="2.5" ry="2.5"/>
		<ellipse class="st21" cx="-138.5" cy="237.5" rx="1.5" ry="1.5"/>
		<circle class="st22" cx="-107.5" cy="217.5" r="1.5"/>
		<circle class="st22" cx="-322.5" cy="329.5" r="1.5"/>
		<ellipse class="st21" cx="-297" cy="296" rx="2" ry="2"/>
		<ellipse class="st23" cx="-308.5" cy="275.5" rx="3.5" ry="3.5"/>
		<circle class="st23" cx="-176" cy="195" r="2"/>
	</g>
	<path class="st24" d="M-275,227h85c1.1,0,2,0.9,2,2v37c0,1.1-0.9,2-2,2h-85c-1.1,0-2-0.9-2-2v-37C-277,227.9-276.1,227-275,227z"/>
	<path class="st16" d="M-220.3,257h-5.7h-8.3h-10c-1.3,0-2.1-1.3-1.4-2.3l9.2-14.7c0.6-1,2.3-1,2.9,0l3.9,6.2l1.4-2.3
		c0.5-0.8,1.7-0.8,2.2,0l7,11.2C-218.7,256-219.3,257-220.3,257z M-222.5,240.9c-1.2,0-2.1-0.9-2.1-2s0.9-2,2.1-2
		c1.2,0,2.1,0.9,2.1,2S-221.3,240.9-222.5,240.9z"/>
</g>
</svg>
