<?xml version="1.0" encoding="utf-8"?>
<!-- Generator: Adobe Illustrator 19.0.0, SVG Export Plug-In . SVG Version: 6.00 Build 0)  -->
<svg version="1.1" id="Layer_1" xmlns="http://www.w3.org/2000/svg" xmlns:xlink="http://www.w3.org/1999/xlink" x="0px" y="0px"
	 width="80px" height="80px" viewBox="-470.5 241 80 80" style="enable-background:new -470.5 241 80 80;" xml:space="preserve">
<style type="text/css">
	.st0{fill:#9AD2A9;}
	.st1{fill:#FFFFFF;}
	.st2{fill:#F2F9F3;}
</style>
<g>
	<path class="st0" d="M-450,241h39c2.1,0,3.8,1.7,3.8,3.8v72.4c0,2.1-1.7,3.8-3.8,3.8h-39c-2.1,0-3.8-1.7-3.8-3.8v-72.4
		C-453.8,242.7-452.1,241-450,241z"/>
	<path class="st1" d="M-447.2,246.7h33.4c0.6,0,1,0.4,1,1V304c0,0.6-0.4,1-1,1h-33.4c-0.6,0-1-0.4-1-1v-56.4
		C-448.1,247.1-447.7,246.7-447.2,246.7z"/>
	<circle class="st2" cx="-430.5" cy="313.2" r="3.9"/>
</g>
</svg>
