<?xml version="1.0" encoding="utf-8"?>
<!-- Generator: Adobe Illustrator 19.0.0, SVG Export Plug-In . SVG Version: 6.00 Build 0)  -->
<svg version="1.1" id="Layer_1" xmlns="http://www.w3.org/2000/svg" xmlns:xlink="http://www.w3.org/1999/xlink" x="0px" y="0px"
	 width="80px" height="80px" viewBox="-431 240.9 80 80" style="enable-background:new -431 240.9 80 80;" xml:space="preserve">
<style type="text/css">
	.st0{fill:#FFFFFF;}
	.st1{fill:#B2B2B2;}
	.st2{fill:#C4E0FF;}
	.st3{fill:#4076B3;}
</style>
<g>
	<g>
		<path class="st0" d="M-411.8,240.9h53.6c1.4,0,2.4,1,2.4,2.4V297c0,1.4-1,2.4-2.4,2.4h-53.6c-1.4,0-2.4-1-2.4-2.4v-53.6
			C-414.2,242-413.2,240.9-411.8,240.9z"/>
		<path class="st1" d="M-358.2,240.9h-4.8v1.6h4.8V240.9L-358.2,240.9L-358.2,240.9z M-367.8,240.9h-4.8v1.6h4.8V240.9L-367.8,240.9
			z M-377.4,240.9h-4.8v1.6h4.8V240.9L-377.4,240.9z M-387,240.9h-4.8v1.6h4.8V240.9L-387,240.9z M-396.6,240.9h-4.8v1.6h4.8V240.9
			L-396.6,240.9z M-406.2,240.9h-4.8v1.6h4.8V240.9L-406.2,240.9z M-412.6,243.6h-1.6v4.8h1.6V243.6L-412.6,243.6z M-412.6,253.2
			h-1.6v4.8h1.6V253.2L-412.6,253.2z M-412.6,262.8h-1.6v4.8h1.6V262.8L-412.6,262.8z M-412.6,272.4h-1.6v4.8h1.6V272.4
			L-412.6,272.4z M-412.6,282h-1.6v4.8h1.6V282L-412.6,282z M-412.6,291.6h-1.6v4.8h1.6V291.6L-412.6,291.6z M-406.5,297.8h-4.8v1.6
			h4.8V297.8L-406.5,297.8z M-396.9,297.8h-4.8v1.6h4.8V297.8L-396.9,297.8z M-387.3,297.8h-4.8v1.6h4.8V297.8L-387.3,297.8z
			 M-377.7,297.8h-4.8v1.6h4.8V297.8L-377.7,297.8z M-368.1,297.8h-4.8v1.6h4.8V297.8L-368.1,297.8z M-358.5,297.8h-4.8v1.6h4.8
			V297.8L-358.5,297.8z M-355.8,291.5h-1.6v4.8h1.6V291.5L-355.8,291.5z M-355.8,281.9h-1.6v4.8h1.6V281.9L-355.8,281.9z
			 M-355.8,272.3h-1.6v4.8h1.6V272.3L-355.8,272.3z M-355.8,262.6h-1.6v4.8h1.6V262.6L-355.8,262.6z M-355.8,253h-1.6v4.8h1.6V253
			L-355.8,253z M-355.8,243.4h-1.6v4.8h1.6V243.4L-355.8,243.4z"/>
	</g>
	<path class="st2" d="M-423.8,253h53.6c1.4,0,2.4,1,2.4,2.4V309c0,1.4-1,2.4-2.4,2.4h-53.6c-1.4,0-2.4-1-2.4-2.4v-53.6
		C-426.2,254-425.2,253-423.8,253z"/>
	<path class="st3" d="M-385.5,275.5c-1.1,0-2.1-1-2.1-2.1c0-1.1,1-2.1,2.1-2.1s2.1,1,2.1,2.1C-383.5,274.7-384.4,275.5-385.5,275.5z
		 M-414.4,290.5l13.1-17.6c0.2-0.3,0.6-0.3,0.9,0l6.3,8c0.2,0.3,0.6,0.3,0.9,0l2.6-3.2c0.2-0.3,0.6-0.3,0.9,0l9.3,12.8
		c0.2,0.4,0,0.9-0.5,0.9h-33C-414.4,291.4-414.6,290.8-414.4,290.5z"/>
	<path class="st3" d="M-377.2,317.2l-3.3-18.6c-0.1-0.3,0.2-0.6,0.6-0.5l17.5,7c0.3,0.2,0.3,0.6,0.1,0.7l-5,3.2
		c-0.2,0.2-0.2,0.4-0.1,0.6l6.2,7.6c0.2,0.2,0.1,0.4-0.1,0.6l-3.8,3c-0.2,0.2-0.4,0.1-0.6-0.1l-6.2-7.6c-0.2-0.2-0.4-0.2-0.6,0
		l-4.2,4.2C-376.7,317.6-377.1,317.5-377.2,317.2z"/>
</g>
</svg>
