<svg xmlns="http://www.w3.org/2000/svg" xmlns:xlink="http://www.w3.org/1999/xlink" preserveAspectRatio="xMidYMid" width="36" height="36" viewBox="0 0 36 36">
  <defs>
    <style>
      .cls-1 {
        fill: #ededed;
      }

      .cls-2 {
        fill: #fff;
        stroke: #ababab;
        stroke-linecap: round;
        stroke-width: 1px;
        stroke-dasharray: 1,5;
      }

      .cls-3 {
        fill: #d6d6d6;
        fill-rule: evenodd;
      }
    </style>
  </defs>
  <g>
    <rect width="36" height="36" rx="6" ry="6" class="cls-1"/>
    <rect x="6" y="18" width="25" height="12" rx="2" ry="2" class="cls-2"/>
    <path d="M8.000,12.000 L29.000,12.000 C30.105,12.000 31.000,12.895 31.000,14.000 C31.000,15.105 30.105,16.000 29.000,16.000 L8.000,16.000 C6.895,16.000 6.000,15.105 6.000,14.000 C6.000,12.895 6.895,12.000 8.000,12.000 Z" class="cls-3"/>
    <path d="M8.000,6.000 L29.000,6.000 C30.105,6.000 31.000,6.895 31.000,8.000 C31.000,9.105 30.105,10.000 29.000,10.000 L8.000,10.000 C6.895,10.000 6.000,9.105 6.000,8.000 C6.000,6.895 6.895,6.000 8.000,6.000 Z" class="cls-3"/>
  </g>
</svg>
