<svg xmlns="http://www.w3.org/2000/svg" xmlns:xlink="http://www.w3.org/1999/xlink" preserveAspectRatio="xMidYMid" width="36" height="36" viewBox="0 0 36 36">
  <defs>
    <style>
      .cls-1 {
        fill: #dbdbdb;
      }

      .cls-1, .cls-3, .cls-4 {
        fill-rule: evenodd;
      }

      .cls-2 {
        fill: #ededed;
      }

      .cls-3 {
        fill: #dfdfdf;
      }

      .cls-4 {
        fill: #4196f6;
      }
    </style>
  </defs>
  <g>
    <path d="M-0.000,21.000 L36.000,21.000 L36.000,30.000 C36.000,33.314 33.314,36.000 30.000,36.000 L6.000,36.000 C2.686,36.000 -0.000,33.314 -0.000,30.000 L-0.000,21.000 Z" class="cls-1"/>
    <rect width="36" height="32" rx="6" ry="6" class="cls-2"/>
    <path d="M26.298,22.101 C25.632,22.782 24.762,23.123 23.688,23.123 C22.606,23.123 21.729,22.782 21.057,22.101 C20.385,21.419 20.049,20.553 20.049,19.502 L20.049,17.967 C20.049,16.920 20.384,16.055 21.054,15.371 C21.724,14.688 22.598,14.346 23.676,14.346 C24.746,14.346 25.618,14.688 26.289,15.371 C26.961,16.055 27.297,16.920 27.297,17.967 L27.297,19.502 C27.297,20.553 26.964,21.419 26.298,22.101 ZM25.323,17.955 C25.323,17.346 25.179,16.846 24.892,16.455 C24.605,16.064 24.199,15.869 23.676,15.869 C23.141,15.869 22.732,16.063 22.449,16.452 C22.165,16.841 22.024,17.342 22.024,17.955 L22.024,19.502 C22.024,20.119 22.167,20.623 22.454,21.014 C22.741,21.404 23.153,21.600 23.688,21.600 C24.207,21.600 24.610,21.404 24.895,21.014 C25.180,20.623 25.323,20.119 25.323,19.502 L25.323,17.955 ZM17.764,22.742 C17.225,22.996 16.531,23.123 15.684,23.123 C14.625,23.123 13.766,22.799 13.106,22.150 C12.446,21.502 12.116,20.660 12.116,19.625 L12.116,17.844 C12.116,16.816 12.437,15.977 13.079,15.324 C13.722,14.672 14.549,14.346 15.561,14.346 C16.651,14.346 17.474,14.589 18.031,15.075 C18.587,15.561 18.856,16.227 18.836,17.070 L18.825,17.105 L16.967,17.105 C16.967,16.688 16.856,16.377 16.633,16.174 C16.411,15.971 16.075,15.869 15.625,15.869 C15.164,15.869 14.793,16.051 14.512,16.414 C14.231,16.777 14.090,17.250 14.090,17.832 L14.090,19.625 C14.090,20.219 14.230,20.696 14.509,21.058 C14.788,21.419 15.180,21.600 15.684,21.600 C16.047,21.600 16.333,21.570 16.542,21.512 C16.751,21.453 16.916,21.375 17.037,21.277 L17.037,19.754 L15.526,19.754 L15.526,18.441 L19.018,18.441 L19.018,21.822 C18.721,22.182 18.303,22.488 17.764,22.742 Z" class="cls-3"/>
    <path d="M24.298,20.100 C23.632,20.782 22.762,21.123 21.688,21.123 C20.606,21.123 19.729,20.782 19.057,20.100 C18.385,19.419 18.049,18.553 18.049,17.502 L18.049,15.967 C18.049,14.920 18.384,14.055 19.054,13.371 C19.724,12.687 20.598,12.346 21.676,12.346 C22.746,12.346 23.618,12.687 24.289,13.371 C24.961,14.055 25.297,14.920 25.297,15.967 L25.297,17.502 C25.297,18.553 24.964,19.419 24.298,20.100 ZM23.323,15.955 C23.323,15.346 23.179,14.846 22.892,14.455 C22.605,14.064 22.200,13.869 21.676,13.869 C21.141,13.869 20.732,14.063 20.449,14.452 C20.165,14.841 20.024,15.342 20.024,15.955 L20.024,17.502 C20.024,18.119 20.167,18.623 20.454,19.014 C20.742,19.404 21.153,19.600 21.688,19.600 C22.207,19.600 22.610,19.404 22.895,19.014 C23.180,18.623 23.323,18.119 23.323,17.502 L23.323,15.955 ZM15.764,20.742 C15.225,20.996 14.532,21.123 13.684,21.123 C12.625,21.123 11.766,20.799 11.106,20.150 C10.446,19.502 10.116,18.660 10.116,17.625 L10.116,15.844 C10.116,14.816 10.437,13.977 11.079,13.324 C11.722,12.672 12.549,12.346 13.561,12.346 C14.651,12.346 15.474,12.589 16.031,13.075 C16.587,13.562 16.856,14.226 16.836,15.070 L16.825,15.105 L14.967,15.105 C14.967,14.687 14.856,14.377 14.633,14.174 C14.411,13.971 14.075,13.869 13.625,13.869 C13.164,13.869 12.793,14.051 12.512,14.414 C12.231,14.777 12.090,15.250 12.090,15.832 L12.090,17.625 C12.090,18.219 12.230,18.696 12.509,19.058 C12.788,19.419 13.180,19.600 13.684,19.600 C14.047,19.600 14.333,19.570 14.542,19.512 C14.751,19.453 14.916,19.375 15.037,19.277 L15.037,17.754 L13.526,17.754 L13.526,16.441 L17.018,16.441 L17.018,19.822 C16.721,20.182 16.303,20.488 15.764,20.742 Z" class="cls-4"/>
  </g>
</svg>
