<svg xmlns="http://www.w3.org/2000/svg" xmlns:xlink="http://www.w3.org/1999/xlink" preserveAspectRatio="xMidYMid" width="36" height="36" viewBox="0 0 36 36">
  <defs>
    <style>
      .cls-1 {
        fill: #ededed;
      }

      .cls-2 {
        fill: #dfdfdf;
      }

      .cls-2, .cls-3 {
        fill-rule: evenodd;
      }

      .cls-3 {
        fill: #4196f6;
      }
    </style>
  </defs>
  <g>
    <rect width="36" height="36" rx="6" ry="6" class="cls-1"/>
    <path d="M19.000,28.995 C13.485,28.995 8.999,24.508 8.999,18.994 C8.999,13.479 13.485,8.993 19.000,8.993 C19.824,8.993 20.492,9.661 20.492,10.485 C20.492,11.310 19.824,11.978 19.000,11.978 C15.132,11.978 11.984,15.125 11.984,18.994 C11.984,22.862 15.132,26.009 19.000,26.009 C22.868,26.009 26.015,22.862 26.015,18.994 C26.015,18.169 26.684,17.501 27.508,17.501 C28.332,17.501 29.001,18.169 29.001,18.994 C29.001,24.508 24.515,28.995 19.000,28.995 Z" class="cls-2"/>
    <path d="M17.000,26.995 C11.485,26.995 6.999,22.508 6.999,16.994 C6.999,11.479 11.485,6.993 17.000,6.993 C17.824,6.993 18.492,7.661 18.492,8.485 C18.492,9.310 17.824,9.978 17.000,9.978 C13.132,9.978 9.984,13.125 9.984,16.994 C9.984,20.862 13.132,24.009 17.000,24.009 C20.868,24.009 24.015,20.862 24.015,16.994 C24.015,16.169 24.684,15.501 25.508,15.501 C26.332,15.501 27.001,16.169 27.001,16.994 C27.001,22.508 22.514,26.995 17.000,26.995 Z" class="cls-3"/>
  </g>
</svg>
