<svg xmlns="http://www.w3.org/2000/svg" xmlns:xlink="http://www.w3.org/1999/xlink" preserveAspectRatio="xMidYMid" width="36" height="36" viewBox="0 0 36 36">
  <defs>
    <style>
      .cls-1 {
        fill: #4196f6;
      }

      .cls-2 {
        fill: #3682d9;
      }

      .cls-2, .cls-3 {
        fill-rule: evenodd;
      }

      .cls-3 {
        fill: #fff;
      }
    </style>
  </defs>
  <g>
    <rect width="36" height="36" rx="6" ry="6" class="cls-1"/>
    <path d="M17.400,23.600 L12.800,19.000 L17.400,14.400 L16.000,13.000 L10.000,19.000 L16.000,25.000 L17.400,23.600 ZM22.600,23.600 L27.200,19.000 L22.600,14.400 L24.000,13.000 L30.000,19.000 L24.000,25.000 L22.600,23.600 Z" class="cls-2"/>
    <path d="M15.400,21.600 L10.800,17.000 L15.400,12.400 L14.000,11.000 L8.000,17.000 L14.000,23.000 L15.400,21.600 ZM20.600,21.600 L25.200,17.000 L20.600,12.400 L22.000,11.000 L28.000,17.000 L22.000,23.000 L20.600,21.600 Z" class="cls-3"/>
  </g>
</svg>
