<svg xmlns="http://www.w3.org/2000/svg" xmlns:xlink="http://www.w3.org/1999/xlink" preserveAspectRatio="xMidYMid" width="36" height="36" viewBox="0 0 36 36">
  <defs>
    <style>
      .cls-1 {
        fill: #425eac;
      }

      .cls-2 {
        fill: #334d96;
      }

      .cls-2, .cls-3 {
        fill-rule: evenodd;
      }

      .cls-3 {
        fill: #fff;
      }
    </style>
  </defs>
  <g>
    <rect width="36" height="36" rx="6" ry="6" class="cls-1"/>
    <path d="M21.885,28.960 L18.161,28.960 L18.161,20.000 L16.300,20.000 L16.300,16.911 L18.161,16.911 L18.161,15.057 C18.161,12.538 19.212,11.040 22.197,11.040 L24.682,11.040 L24.682,14.128 L23.129,14.128 C21.967,14.128 21.890,14.560 21.890,15.365 L21.885,16.911 L24.700,16.911 L24.370,20.000 L21.885,20.000 L21.885,28.960 Z" class="cls-2"/>
    <path d="M19.885,26.960 L16.161,26.960 L16.161,18.000 L14.300,18.000 L14.300,14.911 L16.161,14.911 L16.161,13.057 C16.161,10.538 17.212,9.040 20.197,9.040 L22.682,9.040 L22.682,12.128 L21.129,12.128 C19.967,12.128 19.890,12.560 19.890,13.365 L19.885,14.911 L22.700,14.911 L22.370,18.000 L19.885,18.000 L19.885,26.960 Z" class="cls-3"/>
  </g>
</svg>
