<svg xmlns="http://www.w3.org/2000/svg" xmlns:xlink="http://www.w3.org/1999/xlink" preserveAspectRatio="xMidYMid" width="34" height="34" viewBox="0 0 34 34">
  <defs>
    <style>
      .cls-1, .cls-2 {
        fill: #ededed;
      }

      .cls-1, .cls-3, .cls-4 {
        fill-rule: evenodd;
      }

      .cls-3 {
        fill: #dfdfdf;
      }

      .cls-4 {
        fill: #72b338;
      }

      .cls-5 {
        fill: #f4c000;
      }
    </style>
  </defs>
  <g>
    <path d="M27.000,3.000 L9.000,3.000 C5.686,3.000 3.000,5.686 3.000,9.000 L3.000,27.000 C3.000,27.879 3.200,28.708 3.539,29.461 C1.456,28.520 -0.000,26.434 -0.000,24.000 L-0.000,6.000 C-0.000,2.686 2.686,-0.000 6.000,-0.000 L24.000,-0.000 C26.434,-0.000 28.520,1.456 29.461,3.539 C28.708,3.200 27.879,3.000 27.000,3.000 Z" class="cls-1"/>
    <rect x="4" y="4" width="30" height="30" rx="6" ry="6" class="cls-2"/>
    <path d="M19.630,25.992 L12.222,25.992 L17.407,18.533 L19.630,22.951 L24.074,15.493 L30.000,25.992 L19.630,25.992 ZM19.259,17.009 C18.236,17.009 17.407,16.169 17.407,15.131 C17.407,14.094 18.236,13.253 19.259,13.253 C20.282,13.253 21.111,14.094 21.111,15.131 C21.111,16.169 20.282,17.009 19.259,17.009 Z" class="cls-3"/>
    <path d="M17.407,20.698 L15.185,16.280 L10.000,23.738 L17.407,23.738 L27.778,23.738 L21.852,13.239 L17.407,20.698 Z" class="cls-4"/>
    <circle cx="17.035" cy="12.875" r="1.845" class="cls-5"/>
  </g>
</svg>
