<svg xmlns="http://www.w3.org/2000/svg" xmlns:xlink="http://www.w3.org/1999/xlink" preserveAspectRatio="xMidYMid" width="36" height="36" viewBox="0 0 36 36">
  <defs>
    <style>
      .cls-1 {
        fill: #ededed;
      }

      .cls-2 {
        fill: #88d146;
      }

      .cls-2, .cls-3, .cls-4 {
        fill-rule: evenodd;
      }

      .cls-3 {
        fill: #72b338;
      }

      .cls-4 {
        fill: #e03832;
      }
    </style>
  </defs>
  <g>
    <rect width="36" height="36" rx="6" ry="6" class="cls-1"/>
    <path d="M25.075,25.775 C25.350,25.250 25.500,24.650 25.500,24.000 C25.500,21.950 23.975,20.275 22.000,20.025 L22.000,9.000 L28.000,11.500 L28.000,27.000 L25.075,25.775 ZM8.000,9.000 L14.000,11.500 L14.000,27.000 L8.000,24.500 L8.000,9.000 Z" class="cls-2"/>
    <path d="M17.500,24.000 C17.500,21.950 19.025,20.275 21.000,20.025 L21.000,9.000 L15.000,11.500 L15.000,27.000 L17.925,25.775 C17.650,25.250 17.500,24.650 17.500,24.000 Z" class="cls-3"/>
    <path d="M22.000,21.000 C20.350,21.000 19.000,22.350 19.000,24.000 C19.000,24.625 19.200,25.200 19.525,25.700 L22.000,29.000 L24.475,25.700 C24.800,25.225 25.000,24.625 25.000,24.000 C25.000,22.350 23.650,21.000 22.000,21.000 ZM22.000,25.500 C21.175,25.500 20.500,24.825 20.500,24.000 C20.500,23.175 21.175,22.500 22.000,22.500 C22.825,22.500 23.500,23.175 23.500,24.000 C23.500,24.825 22.825,25.500 22.000,25.500 Z" class="cls-4"/>
  </g>
</svg>
