<svg xmlns="http://www.w3.org/2000/svg" xmlns:xlink="http://www.w3.org/1999/xlink" preserveAspectRatio="xMidYMid" width="36" height="36" viewBox="0 0 36 36">
  <defs>
    <style>
      .cls-1 {
        fill: #e03832;
      }

      .cls-2 {
        fill: #cb342f;
      }

      .cls-2, .cls-3 {
        fill-rule: evenodd;
      }

      .cls-3 {
        fill: #fff;
      }
    </style>
  </defs>
  <g>
    <rect width="36" height="36" rx="6" ry="6" class="cls-1"/>
    <path d="M27.367,20.862 C27.361,21.436 27.358,22.008 27.356,22.579 C26.812,22.579 26.272,22.579 25.728,22.579 C25.723,22.008 25.723,21.436 25.717,20.865 C25.174,20.859 24.628,20.853 24.084,20.847 C24.084,20.279 24.084,19.710 24.084,19.139 C24.628,19.133 25.171,19.130 25.717,19.127 C25.720,18.553 25.725,17.981 25.731,17.410 C26.272,17.410 26.812,17.410 27.356,17.410 C27.358,17.981 27.361,18.556 27.367,19.127 C27.910,19.133 28.456,19.133 29.000,19.139 C29.000,19.707 29.000,20.279 29.000,20.847 C28.456,20.853 27.913,20.856 27.367,20.862 ZM14.638,25.609 C12.401,24.713 10.817,22.229 11.006,19.696 C11.055,16.597 13.764,13.883 16.711,13.986 C18.122,13.918 19.450,14.564 20.531,15.471 C20.070,16.023 19.592,16.554 19.081,17.051 C17.781,16.106 15.932,15.836 14.632,16.927 C12.773,18.280 12.688,21.474 14.477,22.930 C16.216,24.590 19.504,23.765 19.985,21.224 C18.895,21.207 17.803,21.224 16.713,21.186 C16.711,20.503 16.708,19.819 16.711,19.136 C18.532,19.130 20.354,19.127 22.178,19.142 C22.287,20.750 22.085,22.462 21.146,23.791 C19.723,25.896 16.866,26.511 14.638,25.609 Z" class="cls-2"/>
    <path d="M25.367,18.862 C25.361,19.436 25.359,20.008 25.356,20.579 C24.812,20.579 24.272,20.579 23.728,20.579 C23.723,20.008 23.723,19.436 23.717,18.865 C23.174,18.859 22.628,18.853 22.084,18.848 C22.084,18.279 22.084,17.710 22.084,17.139 C22.628,17.133 23.171,17.130 23.717,17.127 C23.720,16.553 23.725,15.981 23.731,15.410 C24.272,15.410 24.812,15.410 25.356,15.410 C25.359,15.981 25.361,16.556 25.367,17.127 C25.910,17.133 26.456,17.133 27.000,17.139 C27.000,17.708 27.000,18.279 27.000,18.848 C26.456,18.853 25.913,18.856 25.367,18.862 ZM12.638,23.609 C10.401,22.713 8.817,20.229 9.006,17.696 C9.055,14.597 11.764,11.883 14.711,11.987 C16.122,11.918 17.450,12.564 18.531,13.471 C18.070,14.023 17.592,14.554 17.081,15.051 C15.781,14.106 13.932,13.836 12.632,14.927 C10.773,16.280 10.688,19.474 12.477,20.930 C14.216,22.590 17.504,21.765 17.985,19.224 C16.895,19.207 15.803,19.224 14.713,19.186 C14.711,18.503 14.708,17.819 14.711,17.136 C16.532,17.130 18.354,17.127 20.178,17.142 C20.287,18.750 20.085,20.462 19.146,21.791 C17.723,23.896 14.866,24.511 12.638,23.609 Z" class="cls-3"/>
  </g>
</svg>
