<svg xmlns="http://www.w3.org/2000/svg" xmlns:xlink="http://www.w3.org/1999/xlink" preserveAspectRatio="xMidYMid" width="36" height="36" viewBox="0 0 36 36">
  <defs>
    <style>
      .cls-1 {
        fill: #72b338;
      }

      .cls-2 {
        fill: #6aa436;
      }

      .cls-2, .cls-3 {
        fill-rule: evenodd;
      }

      .cls-3 {
        fill: #fff;
      }
    </style>
  </defs>
  <g>
    <rect width="36" height="36" rx="6" ry="6" class="cls-1"/>
    <path d="M28.000,21.164 C23.609,17.986 19.219,24.341 14.828,21.164 L14.828,13.220 C19.219,16.397 23.609,10.042 28.000,13.220 L28.000,21.164 ZM14.875,11.964 C14.875,12.497 14.455,12.930 13.937,12.930 C13.420,12.930 13.000,12.497 13.000,11.964 C13.000,11.431 13.420,10.998 13.937,10.998 C14.455,10.998 14.875,11.431 14.875,11.964 ZM14.312,27.613 L14.312,13.510 C14.312,13.296 14.144,13.123 13.937,13.123 C13.730,13.123 13.562,13.296 13.562,13.510 L13.562,27.613 C13.562,27.826 13.730,27.999 13.937,27.999 C14.144,27.999 14.312,27.826 14.312,27.613 L14.312,27.613 Z" class="cls-2"/>
    <path d="M26.000,19.164 C21.609,15.986 17.219,22.341 12.828,19.164 L12.828,11.220 C17.219,14.397 21.609,8.042 26.000,11.220 L26.000,19.164 ZM12.875,9.964 C12.875,10.498 12.455,10.930 11.937,10.930 C11.420,10.930 11.000,10.498 11.000,9.964 C11.000,9.431 11.420,8.998 11.937,8.998 C12.455,8.998 12.875,9.431 12.875,9.964 ZM12.312,25.613 L12.312,11.510 C12.312,11.296 12.144,11.123 11.937,11.123 C11.730,11.123 11.562,11.296 11.562,11.510 L11.562,25.613 C11.562,25.826 11.730,25.999 11.937,25.999 C12.144,25.999 12.312,25.826 12.312,25.613 L12.312,25.613 Z" class="cls-3"/>
  </g>
</svg>
