<svg xmlns="http://www.w3.org/2000/svg" xmlns:xlink="http://www.w3.org/1999/xlink" preserveAspectRatio="xMidYMid" width="36" height="36" viewBox="0 0 36 36">
  <defs>
    <style>
      .cls-1 {
        fill: #ededed;
      }

      .cls-2 {
        fill: #dfdfdf;
      }

      .cls-2, .cls-3 {
        fill-rule: evenodd;
      }

      .cls-3 {
        fill: #72b338;
      }

      .cls-4 {
        fill: #f4c000;
      }
    </style>
  </defs>
  <g>
    <rect width="36" height="36" rx="6" ry="6" class="cls-1"/>
    <path d="M18.000,26.957 L8.000,26.957 L15.000,17.029 L18.000,22.910 L24.000,12.981 L32.000,26.957 L18.000,26.957 ZM17.500,15.000 C16.119,15.000 15.000,13.881 15.000,12.500 C15.000,11.119 16.119,10.000 17.500,10.000 C18.881,10.000 20.000,11.119 20.000,12.500 C20.000,13.881 18.881,15.000 17.500,15.000 Z" class="cls-2"/>
    <path d="M15.000,20.910 L12.000,15.029 L5.000,24.957 L15.000,24.957 L29.000,24.957 L21.000,10.981 L15.000,20.910 Z" class="cls-3"/>
    <circle cx="14.5" cy="10.5" r="2.5" class="cls-4"/>
  </g>
</svg>
