<svg xmlns="http://www.w3.org/2000/svg" xmlns:xlink="http://www.w3.org/1999/xlink" preserveAspectRatio="xMidYMid" width="36" height="28" viewBox="0 0 36 28">
  <defs>
    <style>
      .cls-1 {
        fill: #e3e3e3;
      }

      .cls-1, .cls-3, .cls-4, .cls-5 {
        fill-rule: evenodd;
      }

      .cls-2 {
        fill: #ededed;
      }

      .cls-3 {
        fill: #dfdfdf;
      }

      .cls-4 {
        fill: #72b338;
      }

      .cls-5 {
        fill: #f4c000;
      }
    </style>
  </defs>
  <g>
    <path d="M33.000,6.000 C34.657,6.000 36.000,7.343 36.000,9.000 L36.000,20.000 C36.000,21.657 34.657,23.000 33.000,23.000 L33.000,6.000 Z" class="cls-1"/>
    <path d="M3.000,6.000 L3.000,23.000 C3.000,23.000 -0.000,21.657 -0.000,20.000 L-0.000,9.000 C-0.000,7.343 1.343,6.000 3.000,6.000 Z" class="cls-1"/>
    <rect x="4" width="28" height="28" rx="6" ry="6" class="cls-2"/>
    <path d="M18.150,20.966 L11.150,20.966 L16.050,14.015 L18.150,18.132 L22.350,11.182 L27.950,20.966 L18.150,20.966 ZM17.800,12.595 C16.833,12.595 16.050,11.812 16.050,10.845 C16.050,9.879 16.833,9.095 17.800,9.095 C18.766,9.095 19.550,9.879 19.550,10.845 C19.550,11.812 18.766,12.595 17.800,12.595 Z" class="cls-3"/>
    <path d="M16.050,16.032 L13.950,11.915 L9.050,18.865 L16.050,18.865 L25.850,18.865 L20.250,9.082 L16.050,16.032 Z" class="cls-4"/>
    <path d="M15.700,6.995 C16.666,6.995 17.450,7.779 17.450,8.745 C17.450,9.712 16.666,10.495 15.700,10.495 C14.733,10.495 13.950,9.712 13.950,8.745 C13.950,7.779 14.733,6.995 15.700,6.995 Z" class="cls-5"/>
  </g>
</svg>
