<svg xmlns="http://www.w3.org/2000/svg" xmlns:xlink="http://www.w3.org/1999/xlink" preserveAspectRatio="xMidYMid" width="36" height="36" viewBox="0 0 36 36">
  <defs>
    <style>
      .cls-1 {
        fill: #ededed;
      }

      .cls-2 {
        fill: #dfdfdf;
      }

      .cls-2, .cls-3 {
        fill-rule: evenodd;
      }

      .cls-3 {
        fill: #f4c000;
      }
    </style>
  </defs>
  <g>
    <rect width="36" height="36" rx="6" ry="6" class="cls-1"/>
    <path d="M31.000,15.000 C31.000,16.100 30.100,17.000 29.000,17.000 C28.820,17.000 28.650,16.980 28.490,16.930 L24.930,20.480 C24.980,20.640 25.000,20.820 25.000,21.000 C25.000,22.100 24.100,23.000 23.000,23.000 C21.900,23.000 21.000,22.100 21.000,21.000 C21.000,20.820 21.020,20.640 21.070,20.480 L18.520,17.930 C18.360,17.980 18.180,18.000 18.000,18.000 C17.820,18.000 17.640,17.980 17.480,17.930 L12.930,22.490 C12.980,22.650 13.000,22.820 13.000,23.000 C13.000,24.100 12.100,25.000 11.000,25.000 C9.900,25.000 9.000,24.100 9.000,23.000 C9.000,21.900 9.900,21.000 11.000,21.000 C11.180,21.000 11.350,21.020 11.510,21.070 L16.070,16.520 C16.020,16.360 16.000,16.180 16.000,16.000 C16.000,14.900 16.900,14.000 18.000,14.000 C19.100,14.000 20.000,14.900 20.000,16.000 C20.000,16.180 19.980,16.360 19.930,16.520 L22.480,19.070 C22.640,19.020 22.820,19.000 23.000,19.000 C23.180,19.000 23.360,19.020 23.520,19.070 L27.070,15.510 C27.020,15.350 27.000,15.180 27.000,15.000 C27.000,13.900 27.900,13.000 29.000,13.000 C30.100,13.000 31.000,13.900 31.000,15.000 Z" class="cls-2"/>
    <path d="M29.000,13.000 C29.000,14.100 28.100,15.000 27.000,15.000 C26.820,15.000 26.650,14.980 26.490,14.930 L22.930,18.480 C22.980,18.640 23.000,18.820 23.000,19.000 C23.000,20.100 22.100,21.000 21.000,21.000 C19.900,21.000 19.000,20.100 19.000,19.000 C19.000,18.820 19.020,18.640 19.070,18.480 L16.520,15.930 C16.360,15.980 16.180,16.000 16.000,16.000 C15.820,16.000 15.640,15.980 15.480,15.930 L10.930,20.490 C10.980,20.650 11.000,20.820 11.000,21.000 C11.000,22.100 10.100,23.000 9.000,23.000 C7.900,23.000 7.000,22.100 7.000,21.000 C7.000,19.900 7.900,19.000 9.000,19.000 C9.180,19.000 9.350,19.020 9.510,19.070 L14.070,14.520 C14.020,14.360 14.000,14.180 14.000,14.000 C14.000,12.900 14.900,12.000 16.000,12.000 C17.100,12.000 18.000,12.900 18.000,14.000 C18.000,14.180 17.980,14.360 17.930,14.520 L20.480,17.070 C20.640,17.020 20.820,17.000 21.000,17.000 C21.180,17.000 21.360,17.020 21.520,17.070 L25.070,13.510 C25.020,13.350 25.000,13.180 25.000,13.000 C25.000,11.900 25.900,11.000 27.000,11.000 C28.100,11.000 29.000,11.900 29.000,13.000 Z" class="cls-3"/>
  </g>
</svg>
