<svg xmlns="http://www.w3.org/2000/svg" xmlns:xlink="http://www.w3.org/1999/xlink" preserveAspectRatio="xMidYMid" width="36" height="36" viewBox="0 0 36 36">
  <defs>
    <style>
      .cls-1 {
        fill: #ededed;
      }

      .cls-2 {
        fill: #dfdfdf;
      }

      .cls-2, .cls-3 {
        fill-rule: evenodd;
      }

      .cls-3 {
        fill: #72b338;
      }
    </style>
  </defs>
  <g>
    <rect width="36" height="36" rx="6" ry="6" class="cls-1"/>
    <path d="M27.032,19.946 C26.336,20.558 25.327,20.292 25.327,19.094 L25.327,15.529 C25.327,15.040 24.963,14.690 24.473,14.690 L20.877,14.690 C19.678,14.690 19.411,13.681 20.024,12.987 C21.034,11.844 20.493,10.077 18.655,10.000 C16.817,10.076 16.276,11.841 17.286,12.984 C17.900,13.678 17.633,14.690 16.434,14.690 L12.891,14.690 C12.401,14.690 12.000,15.040 12.000,15.529 L12.000,19.167 C12.000,19.381 12.096,19.740 12.301,19.835 C12.504,19.930 12.767,19.831 12.984,19.634 C13.650,19.028 14.544,18.859 15.303,19.192 C16.066,19.528 16.596,20.318 16.596,21.303 L16.596,21.321 L16.596,21.332 C16.596,22.315 16.060,23.096 15.293,23.434 C14.526,23.771 13.627,23.590 12.959,22.981 C12.745,22.786 12.494,22.693 12.298,22.784 C12.097,22.878 12.000,23.221 12.000,23.434 L12.000,27.096 C12.000,27.586 12.401,28.000 12.891,28.000 L24.473,28.000 C24.963,28.000 25.327,27.586 25.327,27.096 L25.327,23.531 C25.327,22.334 26.328,22.067 27.023,22.680 C28.167,23.689 29.923,23.148 30.000,21.313 C29.923,19.477 28.176,18.937 27.032,19.946 Z" class="cls-2"/>
    <path d="M25.032,17.946 C24.336,18.558 23.327,18.292 23.327,17.094 L23.327,13.529 C23.327,13.040 22.963,12.690 22.473,12.690 L18.877,12.690 C17.678,12.690 17.410,11.681 18.024,10.987 C19.034,9.844 18.493,8.077 16.655,8.000 C14.817,8.076 14.276,9.841 15.286,10.984 C15.900,11.678 15.633,12.690 14.434,12.690 L10.891,12.690 C10.401,12.690 10.000,13.040 10.000,13.529 L10.000,17.167 C10.000,17.381 10.096,17.740 10.301,17.835 C10.504,17.930 10.767,17.831 10.984,17.634 C11.650,17.028 12.544,16.859 13.303,17.192 C14.066,17.528 14.596,18.318 14.596,19.303 L14.596,19.321 L14.596,19.332 C14.596,20.315 14.060,21.096 13.293,21.434 C12.526,21.771 11.627,21.590 10.959,20.981 C10.745,20.786 10.494,20.693 10.298,20.784 C10.097,20.878 10.000,21.221 10.000,21.434 L10.000,25.096 C10.000,25.586 10.401,26.000 10.891,26.000 L22.473,26.000 C22.963,26.000 23.327,25.586 23.327,25.096 L23.327,21.531 C23.327,20.334 24.328,20.067 25.023,20.680 C26.167,21.689 27.923,21.148 28.000,19.312 C27.923,17.477 26.176,16.937 25.032,17.946 Z" class="cls-3"/>
  </g>
</svg>
