<svg xmlns="http://www.w3.org/2000/svg" xmlns:xlink="http://www.w3.org/1999/xlink" preserveAspectRatio="xMidYMid" width="36" height="36" viewBox="0 0 36 36">
  <defs>
    <style>
      .cls-1 {
        fill: #ca2027;
      }

      .cls-2 {
        fill: #b41e25;
      }

      .cls-2, .cls-3 {
        fill-rule: evenodd;
      }

      .cls-3 {
        fill: #fff;
      }
    </style>
  </defs>
  <g>
    <rect width="36" height="36" rx="6" ry="6" class="cls-1"/>
    <path d="M19.870,11.143 C15.552,11.143 13.375,14.204 13.375,16.758 C13.375,18.304 13.967,19.679 15.236,20.192 C15.444,20.276 15.631,20.195 15.691,19.967 C15.733,19.809 15.832,19.411 15.877,19.245 C15.937,19.020 15.914,18.941 15.746,18.744 C15.380,18.317 15.146,17.765 15.146,16.982 C15.146,14.710 16.864,12.677 19.621,12.677 C22.061,12.677 23.402,14.151 23.402,16.121 C23.402,18.713 22.243,20.900 20.521,20.900 C19.570,20.900 18.858,20.123 19.086,19.169 C19.360,18.030 19.889,16.801 19.889,15.979 C19.889,15.244 19.489,14.630 18.663,14.630 C17.691,14.630 16.910,15.624 16.910,16.957 C16.910,17.805 17.200,18.379 17.200,18.379 C17.200,18.379 16.206,22.547 16.031,23.277 C15.684,24.730 15.979,26.513 16.004,26.693 C16.019,26.799 16.157,26.825 16.220,26.744 C16.310,26.628 17.467,25.215 17.861,23.803 C17.972,23.403 18.500,21.332 18.500,21.332 C18.816,21.928 19.739,22.452 20.720,22.452 C23.642,22.452 25.624,19.818 25.624,16.292 C25.624,13.626 23.341,11.143 19.870,11.143 Z" class="cls-2"/>
    <path d="M17.870,9.143 C13.552,9.143 11.375,12.205 11.375,14.758 C11.375,16.304 11.967,17.679 13.236,18.192 C13.444,18.276 13.631,18.195 13.691,17.967 C13.733,17.809 13.832,17.411 13.877,17.245 C13.938,17.020 13.914,16.941 13.746,16.744 C13.380,16.317 13.146,15.765 13.146,14.982 C13.146,12.710 14.865,10.677 17.621,10.677 C20.061,10.677 21.402,12.151 21.402,14.121 C21.402,16.713 20.243,18.900 18.521,18.900 C17.570,18.900 16.858,18.123 17.087,17.169 C17.360,16.030 17.889,14.801 17.889,13.979 C17.889,13.244 17.490,12.630 16.663,12.630 C15.691,12.630 14.910,13.624 14.910,14.957 C14.910,15.805 15.200,16.379 15.200,16.379 C15.200,16.379 14.206,20.547 14.031,21.277 C13.684,22.730 13.979,24.513 14.004,24.693 C14.019,24.799 14.157,24.825 14.220,24.744 C14.310,24.628 15.467,23.215 15.861,21.803 C15.972,21.403 16.500,19.332 16.500,19.332 C16.816,19.927 17.739,20.452 18.720,20.452 C21.642,20.452 23.624,17.818 23.624,14.292 C23.624,11.626 21.341,9.143 17.870,9.143 Z" class="cls-3"/>
  </g>
</svg>
