<svg xmlns="http://www.w3.org/2000/svg" xmlns:xlink="http://www.w3.org/1999/xlink" preserveAspectRatio="xMidYMid" width="36" height="36" viewBox="0 0 36 36">
  <defs>
    <style>
      .cls-1 {
        fill: #ededed;
      }

      .cls-2 {
        fill: #dfdfdf;
      }

      .cls-2, .cls-3 {
        fill-rule: evenodd;
      }

      .cls-3 {
        fill: #4196f6;
      }
    </style>
  </defs>
  <g>
    <rect width="36" height="36" rx="6" ry="6" class="cls-1"/>
    <path d="M23.000,26.000 L23.000,20.000 L28.000,20.000 L28.000,26.000 L23.000,26.000 ZM23.000,13.000 L28.000,13.000 L28.000,19.000 L23.000,19.000 L23.000,13.000 ZM17.000,20.000 L22.000,20.000 L22.000,26.000 L17.000,26.000 L17.000,20.000 ZM17.000,13.000 L22.000,13.000 L22.000,19.000 L17.000,19.000 L17.000,13.000 ZM11.000,20.000 L16.000,20.000 L16.000,26.000 L11.000,26.000 L11.000,20.000 ZM11.000,13.000 L16.000,13.000 L16.000,19.000 L11.000,19.000 L11.000,13.000 Z" class="cls-2"/>
    <path d="M21.000,24.000 L21.000,18.000 L26.000,18.000 L26.000,24.000 L21.000,24.000 ZM21.000,11.000 L26.000,11.000 L26.000,17.000 L21.000,17.000 L21.000,11.000 ZM15.000,18.000 L20.000,18.000 L20.000,24.000 L15.000,24.000 L15.000,18.000 ZM15.000,11.000 L20.000,11.000 L20.000,17.000 L15.000,17.000 L15.000,11.000 ZM9.000,18.000 L14.000,18.000 L14.000,24.000 L9.000,24.000 L9.000,18.000 ZM9.000,11.000 L14.000,11.000 L14.000,17.000 L9.000,17.000 L9.000,11.000 Z" class="cls-3"/>
  </g>
</svg>
