<svg xmlns="http://www.w3.org/2000/svg" xmlns:xlink="http://www.w3.org/1999/xlink" preserveAspectRatio="xMidYMid" width="36" height="36" viewBox="0 0 36 36">
  <defs>
    <style>
      .cls-1 {
        fill: #ededed;
      }

      .cls-2 {
        fill: #dfdfdf;
      }

      .cls-2, .cls-3 {
        fill-rule: evenodd;
      }

      .cls-3 {
        fill: #4196f6;
      }
    </style>
  </defs>
  <g>
    <rect width="36" height="36" rx="6" ry="6" class="cls-1"/>
    <path d="M27.000,24.000 L27.000,17.000 L32.000,17.000 L32.000,24.000 L27.000,24.000 ZM15.000,13.000 L26.000,13.000 L26.000,26.000 L15.000,26.000 L15.000,13.000 ZM9.000,17.000 L14.000,17.000 L14.000,24.000 L9.000,24.000 L9.000,17.000 Z" class="cls-2"/>
    <path d="M25.000,22.000 L25.000,15.000 L30.000,15.000 L30.000,22.000 L25.000,22.000 ZM13.000,11.000 L24.000,11.000 L24.000,24.000 L13.000,24.000 L13.000,11.000 ZM7.000,15.000 L12.000,15.000 L12.000,22.000 L7.000,22.000 L7.000,15.000 Z" class="cls-3"/>
  </g>
</svg>
