<svg xmlns="http://www.w3.org/2000/svg" xmlns:xlink="http://www.w3.org/1999/xlink" preserveAspectRatio="xMidYMid" width="36" height="36" viewBox="0 0 36 36">
  <defs>
    <style>
      .cls-1 {
        fill: #ededed;
      }

      .cls-2 {
        fill: #dfdfdf;
      }

      .cls-2, .cls-3, .cls-4, .cls-5 {
        fill-rule: evenodd;
      }

      .cls-3 {
        fill: #f4c000;
      }

      .cls-4 {
        fill: #4196f6;
      }

      .cls-5 {
        fill: #72b338;
      }
    </style>
  </defs>
  <g>
    <rect width="36" height="36" rx="6" ry="6" class="cls-1"/>
    <path d="M9.000,27.000 L9.000,24.000 L18.000,24.000 L18.000,27.000 L9.000,27.000 Z" class="cls-2"/>
    <path d="M9.000,22.000 L9.000,19.000 L33.000,19.000 L33.000,22.000 L9.000,22.000 Z" class="cls-2"/>
    <path d="M9.000,17.000 L9.000,14.000 L25.000,14.000 L25.000,17.000 L9.000,17.000 Z" class="cls-2"/>
    <path d="M7.000,25.000 L7.000,22.000 L16.000,22.000 L16.000,25.000 L7.000,25.000 Z" class="cls-3"/>
    <path d="M7.000,20.000 L7.000,17.000 L31.000,17.000 L31.000,20.000 L7.000,20.000 Z" class="cls-4"/>
    <path d="M7.000,15.000 L7.000,12.000 L23.000,12.000 L23.000,15.000 L7.000,15.000 Z" class="cls-5"/>
  </g>
</svg>
