<svg xmlns="http://www.w3.org/2000/svg" xmlns:xlink="http://www.w3.org/1999/xlink" preserveAspectRatio="xMidYMid" width="36" height="36" viewBox="0 0 36 36">
  <defs>
    <style>
      .cls-1 {
        fill: #ededed;
      }

      .cls-2 {
        fill: #dfdfdf;
      }

      .cls-2, .cls-3, .cls-4, .cls-5 {
        fill-rule: evenodd;
      }

      .cls-3 {
        fill: #72b338;
      }

      .cls-4 {
        fill: #4196f6;
      }

      .cls-5 {
        fill: #f4c000;
      }
    </style>
  </defs>
  <g>
    <rect width="36" height="36" rx="6" ry="6" class="cls-1"/>
    <path d="M27.019,24.084 L19.858,19.982 L19.858,11.776 C24.381,11.916 28.017,15.611 28.017,20.133 C28.017,21.594 27.708,22.824 27.019,24.084 ZM19.585,28.495 C18.115,28.495 16.661,28.107 15.380,27.373 C14.105,26.643 13.187,25.762 12.432,24.539 L19.593,20.437 L26.752,24.539 C25.223,26.985 22.501,28.495 19.585,28.495 ZM15.380,12.893 C16.655,12.162 17.883,11.813 19.327,11.776 L19.327,19.982 L12.168,24.083 C10.028,20.126 11.435,15.153 15.380,12.893 Z" class="cls-2"/>
    <path d="M9.977,21.217 C7.898,17.458 9.265,12.734 13.098,10.586 C14.337,9.892 15.530,9.561 16.934,9.525 L16.934,17.320 L9.977,21.217 Z" class="cls-3"/>
    <path d="M18.884,17.320 L18.884,9.525 C23.203,9.658 26.674,13.168 26.674,17.463 C26.674,18.851 26.379,20.020 25.721,21.217 L18.884,17.320 Z" class="cls-4"/>
    <path d="M17.266,26.721 C15.814,26.721 14.377,26.346 13.111,25.637 C11.851,24.932 10.944,24.082 10.198,22.901 L17.274,18.940 L24.349,22.901 C22.838,25.263 20.148,26.721 17.266,26.721 Z" class="cls-5"/>
  </g>
</svg>
