<svg xmlns="http://www.w3.org/2000/svg" xmlns:xlink="http://www.w3.org/1999/xlink" preserveAspectRatio="xMidYMid" width="36" height="36" viewBox="0 0 36 36">
  <defs>
    <style>
      .cls-1 {
        fill: #ededed;
      }

      .cls-2 {
        fill: #dfdfdf;
      }

      .cls-2, .cls-3 {
        fill-rule: evenodd;
      }

      .cls-3 {
        fill: #4196f6;
      }
    </style>
  </defs>
  <g>
    <rect width="36" height="36" rx="6" ry="6" class="cls-1"/>
    <path d="M23.257,21.756 L22.466,21.756 L22.186,21.486 C23.167,20.345 23.757,18.864 23.757,17.254 C23.757,13.662 20.845,10.750 17.254,10.750 C13.662,10.750 10.750,13.662 10.750,17.254 C10.750,20.846 13.662,23.757 17.254,23.757 C18.864,23.757 20.345,23.167 21.486,22.186 L21.756,22.466 L21.756,23.257 L26.759,28.250 L28.250,26.759 L23.257,21.756 ZM17.254,21.756 C14.762,21.756 12.751,19.745 12.751,17.254 C12.751,14.762 14.762,12.751 17.254,12.751 C19.745,12.751 21.756,14.762 21.756,17.254 C21.756,19.745 19.745,21.756 17.254,21.756 Z" class="cls-2"/>
    <path d="M21.257,19.756 L20.466,19.756 L20.186,19.486 C21.167,18.345 21.757,16.864 21.757,15.254 C21.757,11.662 18.845,8.750 15.254,8.750 C11.662,8.750 8.750,11.662 8.750,15.254 C8.750,18.846 11.662,21.757 15.254,21.757 C16.864,21.757 18.345,21.167 19.486,20.186 L19.756,20.466 L19.756,21.257 L24.759,26.250 L26.249,24.759 L21.257,19.756 ZM15.254,19.756 C12.762,19.756 10.751,17.745 10.751,15.254 C10.751,12.762 12.762,10.751 15.254,10.751 C17.745,10.751 19.756,12.762 19.756,15.254 C19.756,17.745 17.745,19.756 15.254,19.756 Z" class="cls-3"/>
  </g>
</svg>
