<svg xmlns="http://www.w3.org/2000/svg" xmlns:xlink="http://www.w3.org/1999/xlink" preserveAspectRatio="xMidYMid" width="36" height="36" viewBox="0 0 36 36">
  <defs>
    <style>
      .cls-1 {
        fill: #ededed;
      }

      .cls-1, .cls-2 {
        fill-rule: evenodd;
      }

      .cls-2 {
        fill: #cdcccc;
      }

      .cls-3 {
        fill: #4196f6;
      }
    </style>
  </defs>
  <g>
    <path d="M-0.000,5.000 L36.000,5.000 L36.000,30.000 C36.000,33.314 33.314,36.000 30.000,36.000 L6.000,36.000 C2.686,36.000 -0.000,33.314 -0.000,30.000 L-0.000,5.000 Z" class="cls-1"/>
    <path d="M28.000,-0.000 L33.000,-0.000 C34.657,-0.000 36.000,1.343 36.000,3.000 L36.000,5.000 L25.000,5.000 L25.000,3.000 C25.000,1.343 26.343,-0.000 28.000,-0.000 Z" class="cls-2"/>
    <path d="M16.000,-0.000 L21.000,-0.000 C22.657,-0.000 24.000,1.343 24.000,3.000 L24.000,5.000 L13.000,5.000 L13.000,3.000 C13.000,1.343 14.343,-0.000 16.000,-0.000 Z" class="cls-2"/>
    <path d="M3.000,-0.000 L9.000,-0.000 C10.657,-0.000 12.000,1.343 12.000,3.000 L12.000,5.000 L-0.000,5.000 L-0.000,3.000 C-0.000,1.343 1.343,-0.000 3.000,-0.000 Z" class="cls-1"/>
    <path d="M10.000,21.000 L10.000,20.000 L29.000,20.000 L29.000,21.000 L10.000,21.000 ZM18.000,12.000 L26.000,12.000 L26.000,13.000 L18.000,13.000 L18.000,12.000 ZM27.000,24.000 L10.000,24.000 L10.000,23.000 L27.000,23.000 L27.000,24.000 ZM24.000,27.000 L10.000,27.000 L10.000,26.000 L24.000,26.000 L24.000,27.000 Z" class="cls-2"/>
    <rect x="10" y="10" width="5" height="5" class="cls-3"/>
  </g>
</svg>
