<svg xmlns="http://www.w3.org/2000/svg" xmlns:xlink="http://www.w3.org/1999/xlink" preserveAspectRatio="xMidYMid" width="36" height="36" viewBox="0 0 36 36">
  <defs>
    <style>
      .cls-1 {
        fill: #ededed;
      }

      .cls-2 {
        fill: #dfdfdf;
      }

      .cls-2, .cls-3 {
        fill-rule: evenodd;
      }

      .cls-3 {
        fill: #4196f6;
      }
    </style>
  </defs>
  <g>
    <rect width="36" height="36" rx="6" ry="6" class="cls-1"/>
    <path d="M24.000,21.000 L24.000,19.000 L33.000,19.000 L33.000,21.000 L24.000,21.000 ZM21.000,27.000 L18.000,27.000 L18.000,15.000 L13.000,15.000 L13.000,12.000 L26.000,12.000 L26.000,15.000 L21.000,15.000 L21.000,27.000 ZM15.000,21.000 L5.000,21.000 L5.000,19.000 L15.000,19.000 L15.000,21.000 Z" class="cls-2"/>
    <path d="M22.000,19.000 L22.000,17.000 L31.000,17.000 L31.000,19.000 L22.000,19.000 ZM19.000,25.000 L16.000,25.000 L16.000,13.000 L11.000,13.000 L11.000,10.000 L24.000,10.000 L24.000,13.000 L19.000,13.000 L19.000,25.000 ZM13.000,19.000 L3.000,19.000 L3.000,17.000 L13.000,17.000 L13.000,19.000 Z" class="cls-3"/>
  </g>
</svg>
