<svg xmlns="http://www.w3.org/2000/svg" xmlns:xlink="http://www.w3.org/1999/xlink" preserveAspectRatio="xMidYMid" width="36" height="36" viewBox="0 0 36 36">
  <defs>
    <style>
      .cls-1 {
        fill: #ededed;
      }

      .cls-2 {
        fill: #dfdfdf;
      }

      .cls-2, .cls-3 {
        fill-rule: evenodd;
      }

      .cls-3 {
        fill: #4196f6;
      }
    </style>
  </defs>
  <g>
    <rect width="36" height="36" rx="6" ry="6" class="cls-1"/>
    <path d="M10.000,11.000 L10.000,14.000 L15.000,14.000 L15.000,26.000 L18.000,26.000 L18.000,14.000 L23.000,14.000 L23.000,11.000 L10.000,11.000 ZM29.000,16.000 L20.000,16.000 L20.000,19.000 L23.000,19.000 L23.000,26.000 L26.000,26.000 L26.000,19.000 L29.000,19.000 L29.000,16.000 Z" class="cls-2"/>
    <path d="M8.000,9.000 L8.000,12.000 L13.000,12.000 L13.000,24.000 L16.000,24.000 L16.000,12.000 L21.000,12.000 L21.000,9.000 L8.000,9.000 ZM27.000,14.000 L18.000,14.000 L18.000,17.000 L21.000,17.000 L21.000,24.000 L24.000,24.000 L24.000,17.000 L27.000,17.000 L27.000,14.000 Z" class="cls-3"/>
  </g>
</svg>
