<svg xmlns="http://www.w3.org/2000/svg" xmlns:xlink="http://www.w3.org/1999/xlink" preserveAspectRatio="xMidYMid" width="72" height="72" viewBox="0 0 72 72">
  <defs>
    <style>
      .cls-1 {
        fill: #ededed;
      }

      .cls-2 {
        fill: #dfdfdf;
      }

      .cls-2, .cls-3 {
        fill-rule: evenodd;
      }

      .cls-3 {
        fill: #4196f6;
      }
    </style>
  </defs>
  <g>
    <rect width="72" height="72" rx="12" ry="12" class="cls-1"/>
    <path d="M19.999,21.998 L19.999,27.999 L30.000,27.999 L30.000,51.999 L35.999,51.999 L35.999,27.999 L46.000,27.999 L46.000,21.998 L19.999,21.998 ZM57.999,31.998 L39.999,31.998 L39.999,37.998 L46.000,37.998 L46.000,51.999 L51.999,51.999 L51.999,37.998 L57.999,37.998 L57.999,31.998 Z" class="cls-2"/>
    <path d="M15.999,17.998 L15.999,23.999 L26.000,23.999 L26.000,47.999 L31.999,47.999 L31.999,23.999 L41.999,23.999 L41.999,17.998 L15.999,17.998 ZM53.999,27.999 L35.999,27.999 L35.999,33.999 L41.999,33.999 L41.999,47.999 L47.999,47.999 L47.999,33.999 L53.999,33.999 L53.999,27.999 Z" class="cls-3"/>
  </g>
</svg>
