<svg xmlns="http://www.w3.org/2000/svg" xmlns:xlink="http://www.w3.org/1999/xlink" preserveAspectRatio="xMidYMid" width="36" height="36" viewBox="0 0 36 36">
  <defs>
    <style>
      .cls-1 {
        fill: #ededed;
      }

      .cls-1, .cls-2 {
        fill-rule: evenodd;
      }

      .cls-2 {
        fill: #cdcccc;
      }

      .cls-3 {
        fill: #4196f6;
      }
    </style>
  </defs>
  <g>
    <path d="M5.000,-0.000 L30.000,-0.000 C33.314,-0.000 36.000,2.686 36.000,6.000 L36.000,30.000 C36.000,33.314 33.314,36.000 30.000,36.000 L5.000,36.000 L5.000,-0.000 Z" class="cls-1"/>
    <path d="M3.000,-0.000 L5.000,-0.000 L5.000,12.000 L3.000,12.000 C1.343,12.000 -0.000,10.657 -0.000,9.000 L-0.000,3.000 C-0.000,1.343 1.343,-0.000 3.000,-0.000 Z" class="cls-1"/>
    <path d="M3.000,13.000 L5.000,13.000 L5.000,24.000 L3.000,24.000 C1.343,24.000 -0.000,22.657 -0.000,21.000 L-0.000,16.000 C-0.000,14.343 1.343,13.000 3.000,13.000 Z" class="cls-2"/>
    <path d="M3.000,25.000 L5.000,25.000 L5.000,36.000 L3.000,36.000 C1.343,36.000 -0.000,34.657 -0.000,33.000 L-0.000,28.000 C-0.000,26.343 1.343,25.000 3.000,25.000 Z" class="cls-2"/>
    <path d="M11.000,20.000 L11.000,19.000 L30.000,19.000 L30.000,20.000 L11.000,20.000 ZM19.000,11.000 L27.000,11.000 L27.000,12.000 L19.000,12.000 L19.000,11.000 ZM28.000,23.000 L11.000,23.000 L11.000,22.000 L28.000,22.000 L28.000,23.000 ZM25.000,26.000 L11.000,26.000 L11.000,25.000 L25.000,25.000 L25.000,26.000 Z" class="cls-2"/>
    <rect x="11" y="9" width="5" height="5" class="cls-3"/>
  </g>
</svg>
