<svg xmlns="http://www.w3.org/2000/svg" xmlns:xlink="http://www.w3.org/1999/xlink" preserveAspectRatio="xMidYMid" width="36" height="36" viewBox="0 0 36 36">
  <defs>
    <style>
      .cls-1 {
        fill: #3cf;
      }

      .cls-2 {
        fill: #27b5e4;
      }

      .cls-2, .cls-3 {
        fill-rule: evenodd;
      }

      .cls-3 {
        fill: #fff;
      }
    </style>
  </defs>
  <g>
    <rect width="36" height="36" rx="6" ry="6" class="cls-1"/>
    <path d="M29.830,18.345 C29.120,18.467 28.091,18.340 27.546,18.111 C28.679,18.016 29.446,17.496 29.742,16.790 C29.333,17.044 28.065,17.320 27.366,17.057 C27.331,16.890 27.293,16.732 27.254,16.589 C26.722,14.608 24.895,13.012 22.982,13.205 C23.136,13.142 23.292,13.083 23.450,13.030 C23.660,12.954 24.896,12.750 24.702,12.309 C24.537,11.921 23.027,12.601 22.743,12.691 C23.118,12.549 23.739,12.303 23.805,11.867 C23.230,11.946 22.666,12.222 22.230,12.621 C22.388,12.450 22.507,12.241 22.532,12.016 C20.998,13.008 20.102,15.005 19.377,16.944 C18.808,16.385 18.302,15.946 17.850,15.701 C16.580,15.013 15.061,14.294 12.677,13.399 C12.604,14.197 13.067,15.258 14.401,15.963 C14.112,15.923 13.584,16.011 13.162,16.113 C13.334,17.027 13.896,17.780 15.419,18.144 C14.723,18.190 14.363,18.351 14.037,18.695 C14.354,19.331 15.128,20.079 16.519,19.925 C14.971,20.600 15.888,21.849 17.147,21.662 C15.000,23.906 11.614,23.740 9.670,21.865 C14.746,28.860 25.781,26.001 27.424,19.264 C28.657,19.274 29.381,18.832 29.830,18.345 Z" class="cls-2"/>
    <path d="M27.330,16.745 C26.620,16.867 25.591,16.740 25.046,16.511 C26.179,16.416 26.946,15.896 27.242,15.190 C26.833,15.444 25.565,15.720 24.866,15.457 C24.831,15.290 24.793,15.132 24.754,14.989 C24.222,13.008 22.395,11.412 20.482,11.605 C20.636,11.542 20.792,11.483 20.950,11.430 C21.160,11.354 22.396,11.150 22.202,10.709 C22.037,10.321 20.527,11.001 20.243,11.091 C20.618,10.949 21.239,10.703 21.305,10.267 C20.730,10.346 20.166,10.622 19.730,11.021 C19.887,10.850 20.007,10.641 20.032,10.416 C18.498,11.408 17.601,13.405 16.877,15.344 C16.308,14.785 15.802,14.346 15.350,14.101 C14.080,13.413 12.561,12.694 10.177,11.799 C10.104,12.597 10.567,13.658 11.901,14.362 C11.612,14.323 11.084,14.411 10.662,14.513 C10.834,15.427 11.396,16.180 12.919,16.544 C12.223,16.590 11.863,16.751 11.537,17.095 C11.854,17.731 12.628,18.479 14.019,18.325 C12.471,19.000 13.388,20.249 14.647,20.062 C12.500,22.306 9.114,22.140 7.170,20.265 C12.246,27.260 23.281,24.401 24.924,17.664 C26.157,17.674 26.881,17.232 27.330,16.745 Z" class="cls-3"/>
  </g>
</svg>
