<svg xmlns="http://www.w3.org/2000/svg" xmlns:xlink="http://www.w3.org/1999/xlink" preserveAspectRatio="xMidYMid" width="18" height="18" viewBox="0 0 18 18">
  <defs>
    <style>
      .cls-1 {
        fill: #fff;
        fill-rule: evenodd;
      }
    </style>
  </defs>
  <path d="M13.000,13.000 L13.000,18.000 L11.000,18.000 L11.000,13.000 L11.000,11.000 L13.000,11.000 L18.000,11.000 L18.000,13.000 L13.000,13.000 ZM11.000,7.000 L11.000,5.000 L11.000,-0.000 L13.000,-0.000 L13.000,5.000 L18.000,5.000 L18.000,7.000 L13.000,7.000 L11.000,7.000 ZM5.000,13.000 L-0.000,13.000 L-0.000,11.000 L5.000,11.000 L7.000,11.000 L7.000,13.000 L7.000,18.000 L5.000,18.000 L5.000,13.000 ZM-0.000,7.000 L-0.000,5.000 L5.000,5.000 L5.000,-0.000 L7.000,-0.000 L7.000,5.000 L7.000,7.000 L5.000,7.000 L-0.000,7.000 Z" class="cls-1"/>
</svg>
