<svg xmlns="http://www.w3.org/2000/svg" xmlns:xlink="http://www.w3.org/1999/xlink" preserveAspectRatio="xMidYMid" width="18" height="18" viewBox="0 0 18 18">
  <defs>
    <style>
      .cls-1 {
        fill: #fff;
        fill-rule: evenodd;
      }
    </style>
  </defs>
  <path d="M16.000,18.000 L11.000,18.000 L11.000,16.000 L16.000,16.000 L16.000,11.000 L18.000,11.000 L18.000,16.000 L18.000,18.000 L16.000,18.000 ZM16.000,2.000 L11.000,2.000 L11.000,-0.000 L16.000,-0.000 L18.000,-0.000 L18.000,2.000 L18.000,7.000 L16.000,7.000 L16.000,2.000 ZM-0.000,18.000 L-0.000,16.000 L-0.000,11.000 L2.000,11.000 L2.000,16.000 L7.000,16.000 L7.000,18.000 L2.000,18.000 L-0.000,18.000 ZM2.000,7.000 L-0.000,7.000 L-0.000,2.000 L-0.000,-0.000 L2.000,-0.000 L7.000,-0.000 L7.000,2.000 L2.000,2.000 L2.000,7.000 Z" class="cls-1"/>
</svg>
