<svg xmlns="http://www.w3.org/2000/svg" xmlns:xlink="http://www.w3.org/1999/xlink" preserveAspectRatio="xMidYMid" width="14.688" height="14.656" viewBox="0 0 14.688 14.656">
  <defs>
    <style>
      .cls-1 {
        fill: #fff;
        fill-rule: evenodd;
      }
    </style>
  </defs>
  <path d="M13.857,8.006 C14.937,7.622 14.937,6.993 13.857,6.609 L13.219,6.382 C12.139,5.998 11.658,4.836 12.150,3.800 L12.440,3.189 C12.933,2.153 12.488,1.709 11.452,2.201 L10.841,2.492 C9.806,2.984 8.644,2.503 8.260,1.422 L8.033,0.785 C7.649,-0.296 7.020,-0.296 6.636,0.785 L6.409,1.422 C6.025,2.503 4.863,2.984 3.827,2.492 L3.216,2.201 C2.180,1.709 1.736,2.153 2.228,3.189 L2.519,3.800 C3.011,4.836 2.530,5.998 1.449,6.382 L0.812,6.609 C-0.269,6.993 -0.269,7.622 0.812,8.006 L1.449,8.233 C2.530,8.617 3.011,9.779 2.519,10.815 L2.228,11.426 C1.736,12.461 2.180,12.906 3.216,12.414 L3.827,12.123 C4.863,11.631 6.025,12.112 6.409,13.193 L6.636,13.830 C7.020,14.911 7.649,14.911 8.033,13.830 L8.260,13.193 C8.644,12.112 9.806,11.631 10.841,12.123 L11.452,12.414 C12.488,12.906 12.933,12.461 12.440,11.426 L12.150,10.815 C11.658,9.779 12.139,8.617 13.219,8.233 L13.857,8.006 ZM7.334,10.370 C5.643,10.370 4.272,8.999 4.272,7.308 C4.272,5.616 5.643,4.245 7.334,4.245 C9.026,4.245 10.397,5.616 10.397,7.308 C10.397,8.999 9.026,10.370 7.334,10.370 Z" class="cls-1"/>
</svg>
