<svg xmlns="http://www.w3.org/2000/svg" xmlns:xlink="http://www.w3.org/1999/xlink" preserveAspectRatio="xMidYMid" width="14" height="19" viewBox="0 0 14 19">
  <defs>
    <style>
      .cls-1 {
        fill: #fff;
        fill-rule: evenodd;
      }
    </style>
  </defs>
  <path d="M12.168,13.000 C11.644,12.100 10.900,11.356 10.000,10.832 L10.000,6.000 L14.000,6.000 L14.000,13.000 L12.168,13.000 ZM-0.000,-0.000 L14.000,-0.000 L14.000,4.000 L-0.000,4.000 L-0.000,-0.000 ZM8.000,10.101 C7.673,10.046 7.343,10.000 7.000,10.000 C4.785,10.000 2.872,11.214 1.832,13.000 L-0.000,13.000 L-0.000,6.000 L8.000,6.000 L8.000,10.101 ZM7.000,12.995 L9.997,17.006 L8.000,17.006 L8.000,19.000 L6.000,19.000 L6.000,17.006 L4.003,17.006 L7.000,12.995 Z" class="cls-1"/>
</svg>
